<svg width="147" height="110" viewBox="0 0 147 110" fill="none" xmlns="http://www.w3.org/2000/svg">
<circle cx="92" cy="55" r="55" fill="#5F5188" fill-opacity="0.83"/>
<path d="M45.732 24.556C45.4573 25.4487 45.3887 26.41 45.526 27.44C45.6633 28.47 45.732 29.4657 45.732 30.427C45.4573 30.427 44.9423 30.53 44.187 30.736C43.5003 30.8733 42.848 30.9763 42.23 31.045C41.9553 31.045 41.6463 31.045 41.303 31.045C40.9597 30.9763 40.685 30.9763 40.479 31.045L38.522 31.457H32.754C31.312 31.5257 30.0073 31.56 28.84 31.56C27.7413 31.4913 26.471 31.457 25.029 31.457C24.7543 31.457 24.3423 31.4913 23.793 31.56C23.3123 31.6287 22.969 31.6287 22.763 31.56C22.763 31.9033 22.7287 32.178 22.66 32.384C22.5913 32.59 22.557 32.8647 22.557 33.208C22.6257 33.414 22.66 33.929 22.66 34.753C22.7287 35.577 22.763 36.504 22.763 37.534C22.8317 38.4953 22.866 39.388 22.866 40.212C22.9347 41.036 22.969 41.551 22.969 41.757V46.392C22.969 46.9413 22.969 47.3877 22.969 47.731C23.0377 48.0743 23.1407 48.555 23.278 49.173H29.252C30.3507 49.173 31.3807 49.2073 32.342 49.276C33.3033 49.3447 34.3677 49.379 35.535 49.379C36.153 49.379 36.874 49.4133 37.698 49.482C38.5907 49.5507 39.2773 49.5163 39.758 49.379C39.8267 49.997 39.8953 50.6493 39.964 51.336C40.0327 52.0227 40.067 52.6407 40.067 53.19V54.838C39.7923 54.838 39.2773 54.8723 38.522 54.941C37.7667 55.0097 37.08 55.0783 36.462 55.147H32.136C30.7627 55.353 29.4923 55.456 28.325 55.456C27.1577 55.456 25.853 55.456 24.411 55.456C24.1363 55.456 23.793 55.4903 23.381 55.559C22.969 55.6277 22.66 55.6277 22.454 55.559V59.37C22.454 60.3313 22.454 61.327 22.454 62.357C22.5227 63.387 22.66 64.2797 22.866 65.035C22.866 66.271 22.866 67.4383 22.866 68.537C22.9347 69.567 22.969 70.5283 22.969 71.421V73.172C23.1063 73.1033 23.5183 73.1377 24.205 73.275C24.9603 73.4123 25.853 73.5497 26.883 73.687C27.913 73.8243 28.7713 73.9273 29.458 73.996C30.2133 74.0647 30.9 74.202 31.518 74.408C31.8613 74.5453 32.5823 74.6483 33.681 74.717C34.8483 74.717 35.6037 74.717 35.947 74.717C37.6637 74.923 39.346 75.0603 40.994 75.129C42.642 75.1977 44.3243 75.3007 46.041 75.438H49.749C50.0237 75.438 50.3327 75.4037 50.676 75.335C51.0193 75.1977 51.2597 75.129 51.397 75.129C51.7403 76.365 51.912 77.5667 51.912 78.734C51.9807 79.9013 52.015 81.0687 52.015 82.236C51.4657 82.5793 50.779 82.751 49.955 82.751C49.131 82.751 48.3413 82.7853 47.586 82.854C47.1053 82.854 46.5903 82.8197 46.041 82.751C45.4917 82.6823 44.9423 82.648 44.393 82.648C43.0197 82.7167 41.3717 82.7167 39.449 82.648C37.595 82.5793 35.9813 82.6137 34.608 82.751H33.063C32.3077 82.6137 31.2433 82.5107 29.87 82.442C28.5653 82.3733 27.5697 82.339 26.883 82.339C26.1277 82.2703 24.926 82.2703 23.278 82.339C21.63 82.4763 18.8833 82.5793 15.038 82.648C14.9007 82.648 14.42 82.648 13.596 82.648C12.8407 82.648 11.9823 82.648 11.021 82.648C10.1283 82.7167 9.27 82.751 8.446 82.751C7.69067 82.8197 7.24433 82.854 7.107 82.854C7.107 81.412 7.004 80.0043 6.798 78.631C6.66067 77.2577 6.592 75.9873 6.592 74.82C6.592 74.1333 6.55767 73.3437 6.489 72.451C6.42033 71.5583 6.45467 70.803 6.592 70.185C6.72933 67.9877 6.76367 65.8247 6.695 63.696C6.695 61.5673 6.695 59.4043 6.695 57.207C6.695 56.7263 6.66067 55.868 6.592 54.632C6.52333 53.396 6.52333 52.2287 6.592 51.13L6.386 47.937C6.31733 47.4563 6.35167 46.598 6.489 45.362C6.695 44.0573 6.76367 42.9243 6.695 41.963C6.62633 40.3837 6.55767 39.0103 6.489 37.843C6.42033 36.607 6.35167 35.165 6.283 33.517C6.21433 32.075 6.21433 30.6673 6.283 29.294C6.42033 27.852 6.489 26.4787 6.489 25.174C6.489 24.8307 6.489 24.556 6.489 24.35C6.55767 24.0753 6.76367 23.8007 7.107 23.526L12.36 23.732C13.39 23.8007 14.5573 23.8007 15.862 23.732C17.2353 23.6633 18.437 23.6633 19.467 23.732C19.7417 23.732 19.982 23.732 20.188 23.732C20.4627 23.6633 20.7373 23.629 21.012 23.629C21.218 23.629 21.6643 23.629 22.351 23.629C23.0377 23.629 23.7587 23.629 24.514 23.629C25.2693 23.629 25.956 23.629 26.574 23.629C27.192 23.629 27.5697 23.6633 27.707 23.732C27.8443 23.8007 28.2563 23.8693 28.943 23.938C29.6297 24.0067 30.1447 24.041 30.488 24.041C30.694 24.041 31.003 24.041 31.415 24.041C31.827 23.9723 32.239 23.938 32.651 23.938C33.1317 23.938 33.578 23.938 33.99 23.938C34.402 23.938 34.711 23.938 34.917 23.938C35.6723 24.0753 36.359 24.144 36.977 24.144C37.6637 24.0753 38.3847 24.0753 39.14 24.144C39.2087 24.144 39.552 24.1783 40.17 24.247C40.8567 24.247 41.612 24.2813 42.436 24.35C43.26 24.4187 43.981 24.4873 44.599 24.556C45.2857 24.556 45.6633 24.556 45.732 24.556Z" fill="#35253D"/>
<path d="M80.544 21.157C81.2307 20.8823 82.2607 20.8137 83.634 20.951C85.0073 21.0883 86.106 21.157 86.93 21.157C87.4107 21.157 88.0287 21.1913 88.784 21.26C89.608 21.26 90.4663 21.3287 91.359 21.466C92.2517 21.5347 93.0757 21.6033 93.831 21.672C94.655 21.672 95.273 21.672 95.685 21.672C96.303 21.672 97.1613 21.7063 98.26 21.775C99.3587 21.775 100.183 21.9123 100.732 22.187C101.007 22.3243 101.59 22.4617 102.483 22.599C103.444 22.6677 104.028 22.7363 104.234 22.805C104.577 22.805 104.783 22.8393 104.852 22.908C104.921 22.908 105.092 23.0453 105.367 23.32C105.367 24.0067 105.264 24.659 105.058 25.277C104.921 25.8263 104.852 26.3757 104.852 26.925C104.371 26.925 103.856 26.9593 103.307 27.028C102.758 27.0967 102.277 27.1653 101.865 27.234C101.178 27.3713 100.629 27.44 100.217 27.44C99.8737 27.3713 99.2557 27.337 98.363 27.337C97.539 27.337 96.6463 27.3713 95.685 27.44C94.7923 27.5087 93.9683 27.5773 93.213 27.646C92.4577 27.7147 91.8053 27.7833 91.256 27.852C90.7753 27.9207 90.5007 27.955 90.432 27.955C89.6767 28.0923 88.681 28.2983 87.445 28.573C86.209 28.8477 84.9387 29.191 83.634 29.603C82.3293 29.9463 81.1277 30.3583 80.029 30.839C78.9303 31.3197 78.175 31.8003 77.763 32.281C77.145 33.1737 76.527 33.8947 75.909 34.444C75.3597 34.9247 74.9477 35.6457 74.673 36.607C74.5357 36.8817 74.467 37.3623 74.467 38.049C74.467 38.667 74.467 39.3537 74.467 40.109C74.5357 40.7957 74.6387 41.4823 74.776 42.169C74.9133 42.8557 75.085 43.3707 75.291 43.714C75.8403 44.332 76.2867 44.95 76.63 45.568C76.9733 46.186 77.248 46.5637 77.454 46.701C77.9347 46.9757 78.5183 47.319 79.205 47.731C79.9603 48.143 80.7157 48.5207 81.471 48.864C81.6083 48.9327 82.0203 49.0357 82.707 49.173C83.4623 49.2417 84.3207 49.4133 85.282 49.688C85.8313 49.8253 86.1747 49.9283 86.312 49.997C86.4493 50.0657 86.7583 50.1687 87.239 50.306C87.5823 50.4433 87.8227 50.5463 87.96 50.615C88.0973 50.6837 88.3377 50.7867 88.681 50.924C89.093 51.0613 89.5393 51.1987 90.02 51.336C90.5693 51.4047 90.8783 51.439 90.947 51.439C91.4963 51.439 92.0457 51.542 92.595 51.748C93.213 51.8853 93.7967 51.954 94.346 51.954C95.3073 52.2287 96.2 52.4347 97.024 52.572C97.848 52.7093 98.7063 53.087 99.599 53.705C100.08 53.8423 100.595 54.014 101.144 54.22C101.693 54.426 102.14 54.632 102.483 54.838C102.689 54.9753 103.067 55.2157 103.616 55.559C104.234 55.8337 104.852 56.177 105.47 56.589C106.088 57.001 106.672 57.4473 107.221 57.928C107.77 58.4087 108.114 58.8207 108.251 59.164C108.938 60.2627 109.418 61.3957 109.693 62.563C109.968 63.6617 110.105 64.7947 110.105 65.962C110.105 66.3053 110.036 66.7517 109.899 67.301C109.83 67.8503 109.762 68.2967 109.693 68.64L109.178 71.524C109.041 71.8673 108.732 72.4853 108.251 73.378C107.77 74.2707 107.461 74.7857 107.324 74.923C107.255 75.0603 107.084 75.3007 106.809 75.644C106.534 75.9187 106.225 76.2277 105.882 76.571C105.607 76.8457 105.333 77.1203 105.058 77.395C104.783 77.601 104.612 77.7383 104.543 77.807C104.062 78.219 103.307 78.7683 102.277 79.455C101.316 80.1417 100.251 80.8283 99.084 81.515C97.9853 82.2703 96.8867 82.8883 95.788 83.369C94.758 83.9183 93.8997 84.193 93.213 84.193C93.0757 84.3303 92.904 84.3647 92.698 84.296C92.492 84.296 92.286 84.3647 92.08 84.502C91.3247 84.502 90.6037 84.5363 89.917 84.605C89.2303 84.7423 88.3033 84.7767 87.136 84.708C86.106 84.6393 85.1103 84.6393 84.149 84.708C83.2563 84.8453 82.2607 84.8797 81.162 84.811C80.6127 84.811 79.7887 84.811 78.69 84.811C77.5913 84.811 76.424 84.7767 75.188 84.708C73.952 84.708 72.7503 84.6737 71.583 84.605C70.4843 84.5363 69.5917 84.399 68.905 84.193C68.8363 84.193 68.596 84.1587 68.184 84.09C67.8407 84.0213 67.4287 83.9527 66.948 83.884C66.536 83.884 66.124 83.8497 65.712 83.781C65.3 83.7123 64.991 83.678 64.785 83.678C64.2357 83.6093 63.4117 83.5063 62.313 83.369C61.283 83.2317 60.562 83.0943 60.15 82.957C59.8753 82.8197 59.5663 82.6137 59.223 82.339C58.9483 82.133 58.811 81.8583 58.811 81.515C58.6737 81.2403 58.4677 80.7253 58.193 79.97C57.987 79.146 57.781 78.322 57.575 77.498C57.369 76.6053 57.1973 75.8157 57.06 75.129C56.9913 74.4423 57.0257 74.099 57.163 74.099C58.3303 74.3737 59.4977 74.6483 60.665 74.923C61.901 75.129 63.2743 75.3693 64.785 75.644C65.9523 75.644 67.1197 75.7813 68.287 76.056C69.4543 76.262 70.7933 76.365 72.304 76.365C72.8533 76.365 73.437 76.3307 74.055 76.262C74.673 76.1247 75.4627 75.9873 76.424 75.85C76.63 75.7813 76.836 75.747 77.042 75.747C77.248 75.747 77.4197 75.7127 77.557 75.644C78.587 75.644 79.7887 75.335 81.162 74.717C82.5353 74.0303 83.5997 73.5153 84.355 73.172C84.4237 73.172 84.5953 73.069 84.87 72.863C85.2133 72.657 85.5567 72.4167 85.9 72.142C86.2433 71.7987 86.5523 71.4897 86.827 71.215C87.1703 70.9403 87.3763 70.7343 87.445 70.597L89.402 67.61C89.5393 67.2667 89.711 66.889 89.917 66.477C90.1917 65.9963 90.3977 65.5843 90.535 65.241C90.947 64.211 90.947 62.9063 90.535 61.327C90.123 60.9837 89.7797 60.606 89.505 60.194C89.299 59.782 88.99 59.3357 88.578 58.855C88.2347 58.3057 87.8227 57.8937 87.342 57.619C86.8613 57.2757 86.3463 56.9667 85.797 56.692C84.8357 56.3487 83.943 56.0397 83.119 55.765C82.295 55.4217 81.6083 55.25 81.059 55.25C80.0977 54.9753 79.308 54.8037 78.69 54.735C78.1407 54.6663 77.5913 54.4947 77.042 54.22C76.1493 53.9453 75.3597 53.7737 74.673 53.705C74.055 53.6363 73.4713 53.4303 72.922 53.087C72.0293 53.087 71.2397 52.984 70.553 52.778C69.935 52.5033 69.1453 52.2287 68.184 51.954C67.8407 51.748 67.463 51.542 67.051 51.336C66.639 51.13 66.33 50.9583 66.124 50.821C65.1627 50.0657 64.3387 49.4477 63.652 48.967C62.9653 48.4863 62.2443 47.7653 61.489 46.804C60.8023 45.9113 60.3217 45.3277 60.047 45.053C59.7723 44.7097 59.429 44.126 59.017 43.302C58.8797 42.9587 58.7423 42.5123 58.605 41.963C58.4677 41.345 58.3647 40.7613 58.296 40.212C58.2273 39.594 58.1587 39.0447 58.09 38.564C58.09 38.0147 58.09 37.637 58.09 37.431C58.09 36.5383 58.1243 35.8173 58.193 35.268C58.2617 34.7187 58.3303 34.135 58.399 33.517C58.4677 32.9677 58.6393 32.384 58.914 31.766C59.1887 31.148 59.4977 30.633 59.841 30.221C60.5963 28.8477 61.4547 27.8863 62.416 27.337C63.3773 26.719 64.476 25.9637 65.712 25.071C65.9867 24.865 66.3987 24.6247 66.948 24.35C67.566 24.0067 68.184 23.6977 68.802 23.423C69.4887 23.1483 70.141 22.908 70.759 22.702C71.377 22.496 71.892 22.3243 72.304 22.187C72.8533 22.187 73.334 22.1183 73.746 21.981C74.158 21.775 74.673 21.672 75.291 21.672C75.8403 21.672 76.2523 21.6377 76.527 21.569C76.8703 21.5003 77.3167 21.466 77.866 21.466C78.2093 21.466 78.5527 21.5003 78.896 21.569C79.308 21.569 79.8573 21.4317 80.544 21.157ZM125.214 72.451C125.214 72.5883 125.214 72.863 125.214 73.275C125.214 73.6183 125.214 74.0303 125.214 74.511C125.214 74.923 125.214 75.335 125.214 75.747C125.214 76.159 125.214 76.468 125.214 76.674C125.214 78.528 125.214 79.7983 125.214 80.485C125.282 81.1717 125.317 81.9957 125.317 82.957C125.317 83.163 125.179 83.3347 124.905 83.472C124.699 83.678 124.458 83.8153 124.184 83.884H117.592V82.751L117.077 75.438C117.077 74.1333 117.042 72.863 116.974 71.627C116.974 70.391 116.939 69.155 116.871 67.919V65.138C116.871 64.1767 116.836 63.2497 116.768 62.357C116.699 61.3957 116.733 60.4343 116.871 59.473V55.971C116.871 54.735 116.836 53.5333 116.768 52.366C116.768 51.13 116.733 49.9283 116.665 48.761C116.665 48.4177 116.665 48.143 116.665 47.937C116.733 47.6623 116.768 47.3533 116.768 47.01C116.768 45.568 116.733 44.2633 116.665 43.096C116.665 41.9287 116.665 40.7957 116.665 39.697C116.665 38.5297 116.665 37.328 116.665 36.092C116.665 34.856 116.63 33.4827 116.562 31.972V29.088C116.493 28.3327 116.424 27.5773 116.356 26.822C116.356 25.998 116.356 25.2083 116.356 24.453V24.144C116.356 23.8693 116.39 23.629 116.459 23.423C116.527 23.3543 116.905 23.2513 117.592 23.114C117.935 23.0453 118.381 23.0453 118.931 23.114C119.411 23.2513 119.995 23.32 120.682 23.32C121.368 23.2513 122.124 23.217 122.948 23.217C123.634 23.217 124.184 23.2857 124.596 23.423C125.076 23.5603 125.317 23.6977 125.317 23.835V39.903C125.248 40.4523 125.214 41.0017 125.214 41.551C125.282 42.0317 125.282 42.5467 125.214 43.096C125.145 43.8513 125.111 44.6067 125.111 45.362C125.179 46.1173 125.214 46.8727 125.214 47.628V49.379C125.214 49.585 125.214 49.8253 125.214 50.1C125.214 50.306 125.179 50.5463 125.111 50.821C125.042 50.9583 125.008 51.233 125.008 51.645C125.008 51.9883 125.008 52.366 125.008 52.778C125.076 53.19 125.111 53.602 125.111 54.014C125.179 54.426 125.214 54.7007 125.214 54.838C125.282 56.692 125.248 57.7907 125.111 58.134C125.042 58.4773 125.008 58.752 125.008 58.958C124.939 59.9193 124.939 60.8807 125.008 61.842C125.145 62.8033 125.214 63.7647 125.214 64.726C125.282 66.0307 125.282 67.3353 125.214 68.64C125.214 69.876 125.214 71.1463 125.214 72.451Z" fill="#35253D"/>
</svg>
