<svg width="578" height="110" viewBox="0 0 578 110" fill="none" xmlns="http://www.w3.org/2000/svg">
<circle cx="92" cy="55" r="55" fill="#5F5188"/>
<path d="M45.732 24.556C45.4573 25.4487 45.3887 26.41 45.526 27.44C45.6633 28.47 45.732 29.4657 45.732 30.427C45.4573 30.427 44.9423 30.53 44.187 30.736C43.5003 30.8733 42.848 30.9763 42.23 31.045C41.9553 31.045 41.6463 31.045 41.303 31.045C40.9597 30.9763 40.685 30.9763 40.479 31.045L38.522 31.457H32.754C31.312 31.5257 30.0073 31.56 28.84 31.56C27.7413 31.4913 26.471 31.457 25.029 31.457C24.7543 31.457 24.3423 31.4913 23.793 31.56C23.3123 31.6287 22.969 31.6287 22.763 31.56C22.763 31.9033 22.7287 32.178 22.66 32.384C22.5913 32.59 22.557 32.8647 22.557 33.208C22.6257 33.414 22.66 33.929 22.66 34.753C22.7287 35.577 22.763 36.504 22.763 37.534C22.8317 38.4953 22.866 39.388 22.866 40.212C22.9347 41.036 22.969 41.551 22.969 41.757V46.392C22.969 46.9413 22.969 47.3877 22.969 47.731C23.0377 48.0743 23.1407 48.555 23.278 49.173H29.252C30.3507 49.173 31.3807 49.2073 32.342 49.276C33.3033 49.3447 34.3677 49.379 35.535 49.379C36.153 49.379 36.874 49.4133 37.698 49.482C38.5907 49.5507 39.2773 49.5163 39.758 49.379C39.8267 49.997 39.8953 50.6493 39.964 51.336C40.0327 52.0227 40.067 52.6407 40.067 53.19V54.838C39.7923 54.838 39.2773 54.8723 38.522 54.941C37.7667 55.0097 37.08 55.0783 36.462 55.147H32.136C30.7627 55.353 29.4923 55.456 28.325 55.456C27.1577 55.456 25.853 55.456 24.411 55.456C24.1363 55.456 23.793 55.4903 23.381 55.559C22.969 55.6277 22.66 55.6277 22.454 55.559V59.37C22.454 60.3313 22.454 61.327 22.454 62.357C22.5227 63.387 22.66 64.2797 22.866 65.035C22.866 66.271 22.866 67.4383 22.866 68.537C22.9347 69.567 22.969 70.5283 22.969 71.421V73.172C23.1063 73.1033 23.5183 73.1377 24.205 73.275C24.9603 73.4123 25.853 73.5497 26.883 73.687C27.913 73.8243 28.7713 73.9273 29.458 73.996C30.2133 74.0647 30.9 74.202 31.518 74.408C31.8613 74.5453 32.5823 74.6483 33.681 74.717C34.8483 74.717 35.6037 74.717 35.947 74.717C37.6637 74.923 39.346 75.0603 40.994 75.129C42.642 75.1977 44.3243 75.3007 46.041 75.438H49.749C50.0237 75.438 50.3327 75.4037 50.676 75.335C51.0193 75.1977 51.2597 75.129 51.397 75.129C51.7403 76.365 51.912 77.5667 51.912 78.734C51.9807 79.9013 52.015 81.0687 52.015 82.236C51.4657 82.5793 50.779 82.751 49.955 82.751C49.131 82.751 48.3413 82.7853 47.586 82.854C47.1053 82.854 46.5903 82.8197 46.041 82.751C45.4917 82.6823 44.9423 82.648 44.393 82.648C43.0197 82.7167 41.3717 82.7167 39.449 82.648C37.595 82.5793 35.9813 82.6137 34.608 82.751H33.063C32.3077 82.6137 31.2433 82.5107 29.87 82.442C28.5653 82.3733 27.5697 82.339 26.883 82.339C26.1277 82.2703 24.926 82.2703 23.278 82.339C21.63 82.4763 18.8833 82.5793 15.038 82.648C14.9007 82.648 14.42 82.648 13.596 82.648C12.8407 82.648 11.9823 82.648 11.021 82.648C10.1283 82.7167 9.27 82.751 8.446 82.751C7.69067 82.8197 7.24433 82.854 7.107 82.854C7.107 81.412 7.004 80.0043 6.798 78.631C6.66067 77.2577 6.592 75.9873 6.592 74.82C6.592 74.1333 6.55767 73.3437 6.489 72.451C6.42033 71.5583 6.45467 70.803 6.592 70.185C6.72933 67.9877 6.76367 65.8247 6.695 63.696C6.695 61.5673 6.695 59.4043 6.695 57.207C6.695 56.7263 6.66067 55.868 6.592 54.632C6.52333 53.396 6.52333 52.2287 6.592 51.13L6.386 47.937C6.31733 47.4563 6.35167 46.598 6.489 45.362C6.695 44.0573 6.76367 42.9243 6.695 41.963C6.62633 40.3837 6.55767 39.0103 6.489 37.843C6.42033 36.607 6.35167 35.165 6.283 33.517C6.21433 32.075 6.21433 30.6673 6.283 29.294C6.42033 27.852 6.489 26.4787 6.489 25.174C6.489 24.8307 6.489 24.556 6.489 24.35C6.55767 24.0753 6.76367 23.8007 7.107 23.526L12.36 23.732C13.39 23.8007 14.5573 23.8007 15.862 23.732C17.2353 23.6633 18.437 23.6633 19.467 23.732C19.7417 23.732 19.982 23.732 20.188 23.732C20.4627 23.6633 20.7373 23.629 21.012 23.629C21.218 23.629 21.6643 23.629 22.351 23.629C23.0377 23.629 23.7587 23.629 24.514 23.629C25.2693 23.629 25.956 23.629 26.574 23.629C27.192 23.629 27.5697 23.6633 27.707 23.732C27.8443 23.8007 28.2563 23.8693 28.943 23.938C29.6297 24.0067 30.1447 24.041 30.488 24.041C30.694 24.041 31.003 24.041 31.415 24.041C31.827 23.9723 32.239 23.938 32.651 23.938C33.1317 23.938 33.578 23.938 33.99 23.938C34.402 23.938 34.711 23.938 34.917 23.938C35.6723 24.0753 36.359 24.144 36.977 24.144C37.6637 24.0753 38.3847 24.0753 39.14 24.144C39.2087 24.144 39.552 24.1783 40.17 24.247C40.8567 24.247 41.612 24.2813 42.436 24.35C43.26 24.4187 43.981 24.4873 44.599 24.556C45.2857 24.556 45.6633 24.556 45.732 24.556Z" fill="#1D0F29"/>
<path d="M80.544 21.157C81.2307 20.8823 82.2607 20.8137 83.634 20.951C85.0073 21.0883 86.106 21.157 86.93 21.157C87.4107 21.157 88.0287 21.1913 88.784 21.26C89.608 21.26 90.4663 21.3287 91.359 21.466C92.2517 21.5347 93.0757 21.6033 93.831 21.672C94.655 21.672 95.273 21.672 95.685 21.672C96.303 21.672 97.1613 21.7063 98.26 21.775C99.3587 21.775 100.183 21.9123 100.732 22.187C101.007 22.3243 101.59 22.4617 102.483 22.599C103.444 22.6677 104.028 22.7363 104.234 22.805C104.577 22.805 104.783 22.8393 104.852 22.908C104.921 22.908 105.092 23.0453 105.367 23.32C105.367 24.0067 105.264 24.659 105.058 25.277C104.921 25.8263 104.852 26.3757 104.852 26.925C104.371 26.925 103.856 26.9593 103.307 27.028C102.758 27.0967 102.277 27.1653 101.865 27.234C101.178 27.3713 100.629 27.44 100.217 27.44C99.8737 27.3713 99.2557 27.337 98.363 27.337C97.539 27.337 96.6463 27.3713 95.685 27.44C94.7923 27.5087 93.9683 27.5773 93.213 27.646C92.4577 27.7147 91.8053 27.7833 91.256 27.852C90.7753 27.9207 90.5007 27.955 90.432 27.955C89.6767 28.0923 88.681 28.2983 87.445 28.573C86.209 28.8477 84.9387 29.191 83.634 29.603C82.3293 29.9463 81.1277 30.3583 80.029 30.839C78.9303 31.3197 78.175 31.8003 77.763 32.281C77.145 33.1737 76.527 33.8947 75.909 34.444C75.3597 34.9247 74.9477 35.6457 74.673 36.607C74.5357 36.8817 74.467 37.3623 74.467 38.049C74.467 38.667 74.467 39.3537 74.467 40.109C74.5357 40.7957 74.6387 41.4823 74.776 42.169C74.9133 42.8557 75.085 43.3707 75.291 43.714C75.8403 44.332 76.2867 44.95 76.63 45.568C76.9733 46.186 77.248 46.5637 77.454 46.701C77.9347 46.9757 78.5183 47.319 79.205 47.731C79.9603 48.143 80.7157 48.5207 81.471 48.864C81.6083 48.9327 82.0203 49.0357 82.707 49.173C83.4623 49.2417 84.3207 49.4133 85.282 49.688C85.8313 49.8253 86.1747 49.9283 86.312 49.997C86.4493 50.0657 86.7583 50.1687 87.239 50.306C87.5823 50.4433 87.8227 50.5463 87.96 50.615C88.0973 50.6837 88.3377 50.7867 88.681 50.924C89.093 51.0613 89.5393 51.1987 90.02 51.336C90.5693 51.4047 90.8783 51.439 90.947 51.439C91.4963 51.439 92.0457 51.542 92.595 51.748C93.213 51.8853 93.7967 51.954 94.346 51.954C95.3073 52.2287 96.2 52.4347 97.024 52.572C97.848 52.7093 98.7063 53.087 99.599 53.705C100.08 53.8423 100.595 54.014 101.144 54.22C101.693 54.426 102.14 54.632 102.483 54.838C102.689 54.9753 103.067 55.2157 103.616 55.559C104.234 55.8337 104.852 56.177 105.47 56.589C106.088 57.001 106.672 57.4473 107.221 57.928C107.77 58.4087 108.114 58.8207 108.251 59.164C108.938 60.2627 109.418 61.3957 109.693 62.563C109.968 63.6617 110.105 64.7947 110.105 65.962C110.105 66.3053 110.036 66.7517 109.899 67.301C109.83 67.8503 109.762 68.2967 109.693 68.64L109.178 71.524C109.041 71.8673 108.732 72.4853 108.251 73.378C107.77 74.2707 107.461 74.7857 107.324 74.923C107.255 75.0603 107.084 75.3007 106.809 75.644C106.534 75.9187 106.225 76.2277 105.882 76.571C105.607 76.8457 105.333 77.1203 105.058 77.395C104.783 77.601 104.612 77.7383 104.543 77.807C104.062 78.219 103.307 78.7683 102.277 79.455C101.316 80.1417 100.251 80.8283 99.084 81.515C97.9853 82.2703 96.8867 82.8883 95.788 83.369C94.758 83.9183 93.8997 84.193 93.213 84.193C93.0757 84.3303 92.904 84.3647 92.698 84.296C92.492 84.296 92.286 84.3647 92.08 84.502C91.3247 84.502 90.6037 84.5363 89.917 84.605C89.2303 84.7423 88.3033 84.7767 87.136 84.708C86.106 84.6393 85.1103 84.6393 84.149 84.708C83.2563 84.8453 82.2607 84.8797 81.162 84.811C80.6127 84.811 79.7887 84.811 78.69 84.811C77.5913 84.811 76.424 84.7767 75.188 84.708C73.952 84.708 72.7503 84.6737 71.583 84.605C70.4843 84.5363 69.5917 84.399 68.905 84.193C68.8363 84.193 68.596 84.1587 68.184 84.09C67.8407 84.0213 67.4287 83.9527 66.948 83.884C66.536 83.884 66.124 83.8497 65.712 83.781C65.3 83.7123 64.991 83.678 64.785 83.678C64.2357 83.6093 63.4117 83.5063 62.313 83.369C61.283 83.2317 60.562 83.0943 60.15 82.957C59.8753 82.8197 59.5663 82.6137 59.223 82.339C58.9483 82.133 58.811 81.8583 58.811 81.515C58.6737 81.2403 58.4677 80.7253 58.193 79.97C57.987 79.146 57.781 78.322 57.575 77.498C57.369 76.6053 57.1973 75.8157 57.06 75.129C56.9913 74.4423 57.0257 74.099 57.163 74.099C58.3303 74.3737 59.4977 74.6483 60.665 74.923C61.901 75.129 63.2743 75.3693 64.785 75.644C65.9523 75.644 67.1197 75.7813 68.287 76.056C69.4543 76.262 70.7933 76.365 72.304 76.365C72.8533 76.365 73.437 76.3307 74.055 76.262C74.673 76.1247 75.4627 75.9873 76.424 75.85C76.63 75.7813 76.836 75.747 77.042 75.747C77.248 75.747 77.4197 75.7127 77.557 75.644C78.587 75.644 79.7887 75.335 81.162 74.717C82.5353 74.0303 83.5997 73.5153 84.355 73.172C84.4237 73.172 84.5953 73.069 84.87 72.863C85.2133 72.657 85.5567 72.4167 85.9 72.142C86.2433 71.7987 86.5523 71.4897 86.827 71.215C87.1703 70.9403 87.3763 70.7343 87.445 70.597L89.402 67.61C89.5393 67.2667 89.711 66.889 89.917 66.477C90.1917 65.9963 90.3977 65.5843 90.535 65.241C90.947 64.211 90.947 62.9063 90.535 61.327C90.123 60.9837 89.7797 60.606 89.505 60.194C89.299 59.782 88.99 59.3357 88.578 58.855C88.2347 58.3057 87.8227 57.8937 87.342 57.619C86.8613 57.2757 86.3463 56.9667 85.797 56.692C84.8357 56.3487 83.943 56.0397 83.119 55.765C82.295 55.4217 81.6083 55.25 81.059 55.25C80.0977 54.9753 79.308 54.8037 78.69 54.735C78.1407 54.6663 77.5913 54.4947 77.042 54.22C76.1493 53.9453 75.3597 53.7737 74.673 53.705C74.055 53.6363 73.4713 53.4303 72.922 53.087C72.0293 53.087 71.2397 52.984 70.553 52.778C69.935 52.5033 69.1453 52.2287 68.184 51.954C67.8407 51.748 67.463 51.542 67.051 51.336C66.639 51.13 66.33 50.9583 66.124 50.821C65.1627 50.0657 64.3387 49.4477 63.652 48.967C62.9653 48.4863 62.2443 47.7653 61.489 46.804C60.8023 45.9113 60.3217 45.3277 60.047 45.053C59.7723 44.7097 59.429 44.126 59.017 43.302C58.8797 42.9587 58.7423 42.5123 58.605 41.963C58.4677 41.345 58.3647 40.7613 58.296 40.212C58.2273 39.594 58.1587 39.0447 58.09 38.564C58.09 38.0147 58.09 37.637 58.09 37.431C58.09 36.5383 58.1243 35.8173 58.193 35.268C58.2617 34.7187 58.3303 34.135 58.399 33.517C58.4677 32.9677 58.6393 32.384 58.914 31.766C59.1887 31.148 59.4977 30.633 59.841 30.221C60.5963 28.8477 61.4547 27.8863 62.416 27.337C63.3773 26.719 64.476 25.9637 65.712 25.071C65.9867 24.865 66.3987 24.6247 66.948 24.35C67.566 24.0067 68.184 23.6977 68.802 23.423C69.4887 23.1483 70.141 22.908 70.759 22.702C71.377 22.496 71.892 22.3243 72.304 22.187C72.8533 22.187 73.334 22.1183 73.746 21.981C74.158 21.775 74.673 21.672 75.291 21.672C75.8403 21.672 76.2523 21.6377 76.527 21.569C76.8703 21.5003 77.3167 21.466 77.866 21.466C78.2093 21.466 78.5527 21.5003 78.896 21.569C79.308 21.569 79.8573 21.4317 80.544 21.157ZM125.214 72.451C125.214 72.5883 125.214 72.863 125.214 73.275C125.214 73.6183 125.214 74.0303 125.214 74.511C125.214 74.923 125.214 75.335 125.214 75.747C125.214 76.159 125.214 76.468 125.214 76.674C125.214 78.528 125.214 79.7983 125.214 80.485C125.282 81.1717 125.317 81.9957 125.317 82.957C125.317 83.163 125.179 83.3347 124.905 83.472C124.699 83.678 124.458 83.8153 124.184 83.884H117.592V82.751L117.077 75.438C117.077 74.1333 117.042 72.863 116.974 71.627C116.974 70.391 116.939 69.155 116.871 67.919V65.138C116.871 64.1767 116.836 63.2497 116.768 62.357C116.699 61.3957 116.733 60.4343 116.871 59.473V55.971C116.871 54.735 116.836 53.5333 116.768 52.366C116.768 51.13 116.733 49.9283 116.665 48.761C116.665 48.4177 116.665 48.143 116.665 47.937C116.733 47.6623 116.768 47.3533 116.768 47.01C116.768 45.568 116.733 44.2633 116.665 43.096C116.665 41.9287 116.665 40.7957 116.665 39.697C116.665 38.5297 116.665 37.328 116.665 36.092C116.665 34.856 116.63 33.4827 116.562 31.972V29.088C116.493 28.3327 116.424 27.5773 116.356 26.822C116.356 25.998 116.356 25.2083 116.356 24.453V24.144C116.356 23.8693 116.39 23.629 116.459 23.423C116.527 23.3543 116.905 23.2513 117.592 23.114C117.935 23.0453 118.381 23.0453 118.931 23.114C119.411 23.2513 119.995 23.32 120.682 23.32C121.368 23.2513 122.124 23.217 122.948 23.217C123.634 23.217 124.184 23.2857 124.596 23.423C125.076 23.5603 125.317 23.6977 125.317 23.835V39.903C125.248 40.4523 125.214 41.0017 125.214 41.551C125.282 42.0317 125.282 42.5467 125.214 43.096C125.145 43.8513 125.111 44.6067 125.111 45.362C125.179 46.1173 125.214 46.8727 125.214 47.628V49.379C125.214 49.585 125.214 49.8253 125.214 50.1C125.214 50.306 125.179 50.5463 125.111 50.821C125.042 50.9583 125.008 51.233 125.008 51.645C125.008 51.9883 125.008 52.366 125.008 52.778C125.076 53.19 125.111 53.602 125.111 54.014C125.179 54.426 125.214 54.7007 125.214 54.838C125.282 56.692 125.248 57.7907 125.111 58.134C125.042 58.4773 125.008 58.752 125.008 58.958C124.939 59.9193 124.939 60.8807 125.008 61.842C125.145 62.8033 125.214 63.7647 125.214 64.726C125.282 66.0307 125.282 67.3353 125.214 68.64C125.214 69.876 125.214 71.1463 125.214 72.451Z" fill="#1D0F29"/>
<path d="M182.647 72.747C183.334 72.129 183.849 71.4767 184.192 70.79C184.535 70.0347 184.707 69.142 184.707 68.112C184.707 67.494 184.535 66.876 184.192 66.258C183.849 65.64 183.334 65.1593 182.647 64.816C180.999 64.198 179.317 63.58 177.6 62.962C175.883 62.344 174.029 61.8633 172.038 61.52C171.077 61.1767 170.047 60.8333 168.948 60.49C167.918 60.1467 166.716 59.8033 165.343 59.46C162.596 58.1553 160.88 55.958 160.193 52.868C160.193 51.5633 160.193 50.293 160.193 49.057C160.193 47.821 160.502 46.5507 161.12 45.246C161.532 44.2847 161.875 43.598 162.15 43.186C162.493 42.7053 162.802 42.362 163.077 42.156C163.42 41.8813 163.729 41.6753 164.004 41.538C164.347 41.332 164.725 41.0573 165.137 40.714C166.716 40.096 168.055 39.6497 169.154 39.375C170.321 39.0317 171.729 38.6883 173.377 38.345C174.064 38.0017 174.716 37.7957 175.334 37.727C176.021 37.6583 176.673 37.624 177.291 37.624H182.853C183.883 37.624 184.844 37.624 185.737 37.624C186.63 37.5553 187.557 37.5553 188.518 37.624C190.029 37.6927 191.436 37.83 192.741 38.036C194.046 38.242 195.556 38.5167 197.273 38.86C198.852 39.066 199.985 39.3063 200.672 39.581C200.535 39.9243 200.397 40.4737 200.26 41.229C200.191 41.9843 200.123 42.7397 200.054 43.495C200.054 43.6323 200.02 43.7697 199.951 43.907C199.951 43.9757 199.951 44.0787 199.951 44.216C199.951 44.5593 199.848 44.7653 199.642 44.834C199.505 44.9027 199.333 44.9027 199.127 44.834C198.99 44.7653 198.818 44.6967 198.612 44.628C197.445 44.4907 196.243 44.422 195.007 44.422C193.771 44.422 192.535 44.4563 191.299 44.525C190.063 44.5937 188.827 44.731 187.591 44.937C186.355 45.143 185.153 45.3147 183.986 45.452C183.437 45.5893 182.922 45.7267 182.441 45.864C181.96 45.9327 181.48 46.0357 180.999 46.173C180.45 46.3103 179.935 46.482 179.454 46.688C179.042 46.894 178.561 47.1687 178.012 47.512C177.325 48.336 176.845 49.0913 176.57 49.778C176.227 50.602 176.055 51.426 176.055 52.25C175.918 52.5933 175.918 53.1427 176.055 53.898C176.192 54.5847 176.467 55.1683 176.879 55.649C177.772 56.6103 178.596 57.2283 179.351 57.503C180.656 57.8463 181.892 58.1553 183.059 58.43C184.295 58.7047 185.394 58.9793 186.355 59.254C186.698 59.254 187.076 59.3227 187.488 59.46C187.9 59.5973 188.278 59.666 188.621 59.666C189.994 59.8033 191.23 60.0437 192.329 60.387C193.428 60.6617 194.629 61.0393 195.934 61.52C196.895 61.8633 197.857 62.241 198.818 62.653C199.848 62.9963 200.844 63.477 201.805 64.095C202.56 65.125 203.11 66.0177 203.453 66.773C203.865 67.5283 204.243 68.421 204.586 69.451V72.129C204.586 72.8157 204.449 73.468 204.174 74.086C203.899 74.704 203.59 75.1847 203.247 75.528C202.56 77.3133 201.221 78.8583 199.23 80.163C197.925 81.1243 196.552 81.914 195.11 82.532C193.737 83.2187 192.226 83.6993 190.578 83.974C188.243 84.7293 185.874 85.1413 183.471 85.21C181.136 85.3473 178.664 85.2443 176.055 84.901L170.39 84.386C169.772 84.3173 169.051 84.2143 168.227 84.077C167.403 83.9397 166.579 83.7337 165.755 83.459C164.588 83.1157 163.729 82.9097 163.18 82.841C162.699 82.841 162.425 82.7723 162.356 82.635C162.287 82.4977 162.219 82.3603 162.15 82.223C162.081 82.1543 162.047 82.0857 162.047 82.017C161.704 81.2617 161.498 80.5407 161.429 79.854C161.36 79.236 161.154 78.4463 160.811 77.485C160.674 77.1417 160.571 76.8327 160.502 76.558C160.433 76.2833 160.365 76.0087 160.296 75.734V75.425C160.296 75.2877 160.262 75.1847 160.193 75.116C160.193 75.0473 160.227 74.9443 160.296 74.807C160.639 74.807 160.914 74.8413 161.12 74.91C161.395 74.9787 161.704 75.013 162.047 75.013C162.871 75.219 163.798 75.425 164.828 75.631C165.927 75.837 166.785 75.94 167.403 75.94C168.021 75.94 168.708 75.9743 169.463 76.043C170.218 76.043 171.077 76.043 172.038 76.043C172.862 76.1117 173.72 76.146 174.613 76.146C175.506 76.146 176.398 75.9743 177.291 75.631C177.497 75.425 177.84 75.219 178.321 75.013C178.802 74.807 179.317 74.601 179.866 74.395C180.415 74.1203 180.93 73.88 181.411 73.674C181.96 73.3993 182.372 73.0903 182.647 72.747ZM240.449 58.224C240.449 58.5673 240.278 58.9107 239.934 59.254C239.728 59.46 239.419 59.5973 239.007 59.666C238.595 59.7347 238.218 59.769 237.874 59.769C237.394 59.9063 236.81 59.975 236.123 59.975C235.437 59.975 234.853 59.975 234.372 59.975C233.411 59.975 232.69 60.0093 232.209 60.078C231.729 60.078 230.939 60.1467 229.84 60.284L223.66 60.799V62.035C223.66 62.7903 223.763 63.5457 223.969 64.301C224.175 64.9877 224.553 65.7087 225.102 66.464C225.446 67.0133 225.858 67.5283 226.338 68.009C226.819 68.4897 227.3 68.7987 227.78 68.936C228.192 69.0733 228.57 69.2107 228.913 69.348C229.257 69.4853 229.566 69.6227 229.84 69.76C230.184 69.8287 230.493 69.8287 230.767 69.76C232.621 69.76 233.96 69.554 234.784 69.142C235.677 68.73 236.741 68.215 237.977 67.597C238.252 67.597 238.527 67.4597 238.801 67.185C239.145 66.9103 239.385 66.7387 239.522 66.67C239.866 66.5327 240.346 66.1893 240.964 65.64C241.651 65.0907 242.166 64.7473 242.509 64.61C242.715 64.7473 242.784 65.228 242.715 66.052C242.647 66.8073 242.681 67.5283 242.818 68.215V69.348V71.408C242.475 71.82 242.2 72.129 241.994 72.335C241.857 72.4723 241.72 72.6097 241.582 72.747C241.514 72.8843 241.376 73.056 241.17 73.262C240.964 73.468 240.655 73.777 240.243 74.189C239.007 75.425 237.703 76.249 236.329 76.661C235.574 77.073 234.75 77.382 233.857 77.588C232.965 77.7253 232.244 77.897 231.694 78.103C231.351 78.1717 231.042 78.206 230.767 78.206C230.493 78.2747 230.218 78.309 229.943 78.309H229.119C227.815 78.309 226.544 78.2747 225.308 78.206C224.072 78.206 222.768 77.8627 221.394 77.176C220.914 77.2447 220.227 77.1073 219.334 76.764C218.51 76.4207 217.961 76.0773 217.686 75.734C216.931 75.322 216.244 74.807 215.626 74.189C215.077 73.571 214.459 73.0217 213.772 72.541C212.811 71.8543 212.124 71.1333 211.712 70.378C211.3 69.6227 210.923 68.833 210.579 68.009C210.236 67.391 209.927 66.7043 209.652 65.949C209.378 65.1937 209.103 64.4383 208.828 63.683C208.828 62.9277 208.794 62.2067 208.725 61.52C208.725 60.8333 208.725 60.1467 208.725 59.46V55.649C208.725 54.413 208.966 52.9367 209.446 51.22C209.996 49.5033 210.648 48.027 211.403 46.791C211.609 46.5163 211.85 46.2417 212.124 45.967C212.33 45.6923 212.571 45.4177 212.845 45.143C213.189 44.8683 213.532 44.5593 213.875 44.216C214.081 44.1473 214.287 44.0443 214.493 43.907C214.768 43.7697 215.146 43.5637 215.626 43.289C215.832 43.1517 216.073 42.9113 216.347 42.568C216.691 42.2247 217.137 41.9843 217.686 41.847C218.442 41.5723 219.163 41.2977 219.849 41.023C220.536 40.6797 221.051 40.508 221.394 40.508C221.875 40.508 222.733 40.5423 223.969 40.611C225.274 40.6797 226.51 40.7483 227.677 40.817C228.295 40.8857 228.81 40.9887 229.222 41.126C229.634 41.2633 229.943 41.332 230.149 41.332C230.699 41.4007 231.145 41.4693 231.488 41.538C231.9 41.6067 232.312 41.7097 232.724 41.847C233.96 42.259 234.853 42.7053 235.402 43.186C236.02 43.598 236.535 44.0443 236.947 44.525C237.222 44.8683 237.462 45.2803 237.668 45.761C237.943 46.173 238.218 46.5507 238.492 46.894C238.836 47.306 239.145 47.8897 239.419 48.645C239.763 49.3317 240.003 50.0183 240.14 50.705C240.278 51.2543 240.381 51.9753 240.449 52.868C240.518 53.7607 240.552 54.5503 240.552 55.237C240.552 55.9237 240.518 56.4387 240.449 56.782C240.449 57.1253 240.449 57.606 240.449 58.224ZM231.591 52.25C231.591 52.1127 231.591 51.8723 231.591 51.529C231.591 51.117 231.523 50.8423 231.385 50.705C230.836 49.8123 230.046 49.2973 229.016 49.16C228.055 48.954 227.197 48.9197 226.441 49.057C225.961 49.1943 225.652 49.366 225.514 49.572C225.377 49.778 225.171 50.087 224.896 50.499C224.759 50.6363 224.656 50.7737 224.587 50.911C224.519 51.0483 224.416 51.1857 224.278 51.323C224.141 51.4603 224.038 51.6663 223.969 51.941C223.969 52.147 223.935 52.353 223.866 52.559C223.729 52.9023 223.66 53.1427 223.66 53.28C223.66 53.4173 223.729 53.7607 223.866 54.31C224.141 54.4473 224.656 54.5847 225.411 54.722C226.235 54.7907 227.059 54.825 227.883 54.825C228.776 54.825 229.6 54.7907 230.355 54.722C231.179 54.5847 231.729 54.4473 232.003 54.31C232.072 54.2413 232.003 54.0697 231.797 53.795C231.66 53.4517 231.591 52.9367 231.591 52.25ZM285.708 44.216C285.708 44.0787 285.811 43.907 286.017 43.701C286.086 43.6323 286.189 43.598 286.326 43.598C287.699 42.2933 289.073 41.2977 290.446 40.611C291.819 39.8557 293.33 39.3063 294.978 38.963C296.969 38.2077 298.926 38.2077 300.849 38.963C301.604 38.963 302.188 39.1003 302.6 39.375C303.012 39.581 303.561 39.684 304.248 39.684C305.896 40.0273 307.269 40.6453 308.368 41.538C309.467 42.4307 310.531 43.5293 311.561 44.834C312.866 46.5507 313.793 48.2673 314.342 49.984C314.891 51.7007 315.509 53.5547 316.196 55.546V60.181C315.853 61.5543 315.612 62.756 315.475 63.786C315.406 64.816 315.2 65.8117 314.857 66.773C314.514 67.803 313.999 68.7987 313.312 69.76C312.694 70.6527 311.87 71.4423 310.84 72.129C309.398 73.571 307.647 74.6697 305.587 75.425C304.214 76.1117 302.978 76.661 301.879 77.073C300.78 77.4163 299.579 77.7253 298.274 78H287.047V80.781C287.047 82.429 287.013 84.077 286.944 85.725C286.875 87.373 286.669 89.0553 286.326 90.772V106.943C286.326 108.248 285.639 108.9 284.266 108.9H278.395C278.052 106.497 277.846 104.196 277.777 101.999C277.708 99.8703 277.674 97.6387 277.674 95.304V75.425C277.537 73.777 277.468 72.232 277.468 70.79C277.468 69.2793 277.468 67.803 277.468 66.361C277.537 64.919 277.571 63.477 277.571 62.035C277.64 60.5243 277.605 58.945 277.468 57.297V55.134C277.468 54.6533 277.502 54.104 277.571 53.486C277.571 52.456 277.571 51.5977 277.571 50.911C277.571 50.1557 277.571 49.4347 277.571 48.748C277.571 48.0613 277.605 47.3403 277.674 46.585C277.743 45.8297 277.846 44.9713 277.983 44.01C277.983 43.6667 278.017 43.1173 278.086 42.362C278.155 41.6067 278.12 40.9887 277.983 40.508C277.983 40.0273 277.983 39.6497 277.983 39.375C278.052 39.1003 278.086 38.9287 278.086 38.86C278.155 38.7227 278.223 38.6197 278.292 38.551C278.361 38.4823 278.429 38.3793 278.498 38.242C278.841 38.1733 279.425 38.242 280.249 38.448C281.073 38.654 281.794 38.7913 282.412 38.86C282.824 38.7913 283.305 38.757 283.854 38.757C284.472 38.757 285.09 38.8257 285.708 38.963V44.216ZM303.939 57.091C303.87 55.9237 303.767 54.8593 303.63 53.898C303.493 52.9367 303.252 51.941 302.909 50.911C302.909 50.8423 302.875 50.7393 302.806 50.602C302.669 50.3273 302.497 50.19 302.291 50.19C301.536 49.572 300.574 49.16 299.407 48.954C298.308 48.6793 297.278 48.8853 296.317 49.572C295.287 50.5333 294.463 51.6663 293.845 52.971C293.227 54.207 292.918 55.5117 292.918 56.885V60.181C292.918 60.799 293.055 61.5543 293.33 62.447C293.605 63.3397 293.914 64.1293 294.257 64.816C294.257 65.1593 294.394 65.3997 294.669 65.537C295.012 65.6057 295.356 65.8117 295.699 66.155C297.004 66.4983 298.343 66.464 299.716 66.052C301.158 65.5713 302.222 64.507 302.909 62.859C303.252 61.8977 303.458 61.005 303.527 60.181C303.596 59.2883 303.733 58.2583 303.939 57.091ZM331.146 51.426C331.215 51.5633 331.249 51.9067 331.249 52.456C331.249 53.0053 331.249 53.4173 331.249 53.692C331.112 54.0353 331.043 54.3787 331.043 54.722C331.043 54.9967 331.043 55.3057 331.043 55.649C331.043 56.061 331.078 56.8507 331.146 58.018C331.215 59.1167 331.249 59.9063 331.249 60.387V62.653C331.249 63.271 331.249 63.889 331.249 64.507C331.318 65.125 331.352 65.743 331.352 66.361C331.352 66.8417 331.318 67.3223 331.249 67.803C331.181 68.215 331.181 68.6613 331.249 69.142C331.249 69.554 331.284 69.966 331.352 70.378C331.421 70.7213 331.455 71.099 331.455 71.511V80.884C331.455 81.2273 331.49 81.5707 331.558 81.914C331.696 82.2573 331.661 82.3947 331.455 82.326C330.769 82.326 329.979 82.3947 329.086 82.532C328.194 82.738 327.37 82.841 326.614 82.841C325.996 82.841 325.447 82.8067 324.966 82.738C324.554 82.6693 323.971 82.4633 323.215 82.12V80.781C322.872 79.4763 322.666 78.309 322.597 77.279C322.597 76.1803 322.597 75.1503 322.597 74.189C322.597 73.4337 322.597 72.747 322.597 72.129C322.597 71.4423 322.666 70.7557 322.803 70.069C322.803 69.7257 322.735 69.451 322.597 69.245C322.597 69.1763 322.563 69.0047 322.494 68.73C322.494 68.3867 322.494 68.0433 322.494 67.7C322.494 67.3567 322.494 67.0477 322.494 66.773C322.494 66.4297 322.494 66.1893 322.494 66.052V61.726C322.494 60.902 322.46 60.078 322.391 59.254C322.391 58.43 322.46 57.606 322.597 56.782C322.666 56.7133 322.7 56.4043 322.7 55.855C322.769 55.237 322.838 54.5847 322.906 53.898C322.975 53.1427 323.009 52.456 323.009 51.838C323.078 51.1513 323.112 50.7393 323.112 50.602C323.181 49.5033 323.181 48.4047 323.112 47.306C323.112 46.2073 323.147 45.143 323.215 44.113C323.215 42.1217 323.181 40.199 323.112 38.345C323.112 36.4223 323.147 34.4997 323.215 32.577C323.215 31.341 323.215 30.1393 323.215 28.972C323.215 27.736 323.181 26.5343 323.112 25.367C323.044 24.749 323.009 24.2683 323.009 23.925C323.078 23.5817 323.112 23.2727 323.112 22.998C323.181 22.6547 323.215 22.3113 323.215 21.968C323.284 21.6247 323.284 21.1097 323.215 20.423C323.215 19.7363 323.25 19.084 323.318 18.466C323.387 17.7793 323.421 17.127 323.421 16.509C323.421 15.8223 323.387 15.2387 323.318 14.758C323.318 14.2773 323.318 13.6937 323.318 13.007L323.833 12.492C324.52 12.492 325.275 12.5263 326.099 12.595C326.923 12.6637 327.644 12.6637 328.262 12.595C328.812 12.5263 329.224 12.492 329.498 12.492C329.773 12.492 330.185 12.492 330.734 12.492C331.078 12.492 331.352 12.595 331.558 12.801C331.696 15.067 331.696 17.2987 331.558 19.496C331.421 21.6933 331.352 23.9937 331.352 26.397V33.607C331.284 36.079 331.181 38.3793 331.043 40.508C330.975 42.6367 330.94 44.731 330.94 46.791C330.94 47.5463 330.975 48.336 331.043 49.16C331.112 49.9153 331.146 50.6707 331.146 51.426ZM375.893 80.472L375.172 80.575C374.828 80.6437 374.588 80.6437 374.451 80.575C374.382 80.575 374.073 80.575 373.524 80.575C373.455 80.575 373.249 80.6093 372.906 80.678C372.562 80.7467 372.185 80.8153 371.773 80.884C371.361 80.9527 370.914 80.9527 370.434 80.884C369.953 80.884 369.575 80.8153 369.301 80.678C368.957 80.678 368.717 80.6437 368.58 80.575C368.442 80.5063 368.202 80.472 367.859 80.472C367.515 80.1973 367.309 79.7853 367.241 79.236C367.241 78.6867 367.241 78.2403 367.241 77.897V75.322L366.417 76.455L364.563 78.206C363.876 78.6867 363.292 79.0643 362.812 79.339C362.4 79.6823 361.885 80.0257 361.267 80.369C360.237 80.987 359.104 81.399 357.868 81.605C356.7 81.811 355.602 81.914 354.572 81.914C353.542 81.914 352.443 81.708 351.276 81.296C350.177 80.884 349.181 80.5063 348.289 80.163C348.014 80.0943 347.739 79.957 347.465 79.751C347.259 79.6137 347.053 79.4763 346.847 79.339C346.435 78.9957 345.954 78.6523 345.405 78.309C344.924 77.9657 344.512 77.6223 344.169 77.279C343.963 77.1417 343.757 77.0043 343.551 76.867C343.413 76.661 343.207 76.4893 342.933 76.352C342.589 76.146 342.28 75.8027 342.006 75.322C341.662 74.5667 341.216 73.8457 340.667 73.159C340.186 72.4037 339.774 71.5453 339.431 70.584C339.225 69.8287 338.95 69.1077 338.607 68.421C338.263 67.7343 338.092 67.082 338.092 66.464C338.092 66.1207 338.057 65.537 337.989 64.713C337.92 63.889 337.886 63.3053 337.886 62.962C337.886 62.344 337.886 61.8633 337.886 61.52C337.954 61.1767 337.989 60.6617 337.989 59.975C337.989 59.6317 338.023 59.2883 338.092 58.945C338.229 58.533 338.366 58.018 338.504 57.4C338.641 56.6447 338.744 55.855 338.813 55.031C338.881 54.1383 338.984 53.4173 339.122 52.868C339.602 51.9753 339.911 51.426 340.049 51.22C340.255 51.014 340.426 50.6363 340.564 50.087C340.701 49.675 340.873 49.16 341.079 48.542C341.353 47.8553 341.731 47.3403 342.212 46.997C342.418 46.8597 342.727 46.6193 343.139 46.276C343.551 45.9327 343.963 45.555 344.375 45.143C344.855 44.731 345.267 44.3877 345.611 44.113C345.954 43.7697 346.194 43.598 346.332 43.598L348.186 42.774C348.735 42.568 349.353 42.4307 350.04 42.362C350.726 42.2247 351.379 42.156 351.997 42.156L355.19 42.053C355.533 42.053 355.911 42.053 356.323 42.053C356.803 42.053 357.112 42.0873 357.25 42.156C357.593 42.156 357.936 42.259 358.28 42.465C358.623 42.671 358.966 42.774 359.31 42.774C359.653 42.774 360.065 42.9113 360.546 43.186C361.095 43.392 361.541 43.6667 361.885 44.01C362.571 44.2847 363.086 44.628 363.43 45.04C363.842 45.3833 364.219 45.7267 364.563 46.07C364.906 46.4133 365.215 46.7567 365.49 47.1C365.833 47.3747 366.176 47.6837 366.52 48.027C366.52 48.233 366.657 48.4047 366.932 48.542C367.069 48.6107 367.172 48.6793 367.241 48.748C367.378 48.6107 367.447 48.336 367.447 47.924C367.515 47.512 367.653 47.1343 367.859 46.791C367.927 45.8297 367.962 44.9713 367.962 44.216C368.03 43.392 368.099 42.8427 368.168 42.568C368.099 42.2933 368.133 41.9157 368.271 41.435C368.408 40.8857 368.648 40.6797 368.992 40.817C369.129 40.7483 369.438 40.7483 369.919 40.817C370.399 40.8857 370.949 40.9887 371.567 41.126C372.185 41.1947 372.803 41.2633 373.421 41.332C374.107 41.4007 374.691 41.435 375.172 41.435C375.24 41.435 375.275 41.6067 375.275 41.95C375.275 42.2933 375.24 42.568 375.172 42.774L375.79 52.662V63.786C375.79 63.992 375.755 64.198 375.687 64.404C375.687 64.61 375.687 64.816 375.687 65.022C375.755 65.64 375.79 66.2923 375.79 66.979C375.79 67.597 375.79 68.2493 375.79 68.936C375.858 69.4167 375.858 69.9317 375.79 70.481C375.79 70.9617 375.79 71.4767 375.79 72.026C375.79 72.438 375.79 73.0217 375.79 73.777C375.858 74.4637 375.893 75.1847 375.893 75.94C375.893 76.6953 375.893 77.4163 375.893 78.103C375.893 78.8583 375.893 79.4763 375.893 79.957V80.472ZM362.606 64.919V64.61C362.606 64.198 362.674 63.3053 362.812 61.932C362.949 60.49 362.64 58.739 361.885 56.679C361.679 56.1297 361.37 55.546 360.958 54.928C360.546 54.31 359.893 53.8293 359.001 53.486C358.52 53.3487 358.074 53.2113 357.662 53.074C357.25 52.868 356.803 52.7993 356.323 52.868C355.842 53.0053 355.224 53.3143 354.469 53.795C353.782 54.2757 353.198 54.8593 352.718 55.546C352.374 55.8893 352.168 56.267 352.1 56.679C352.031 57.091 351.962 57.5717 351.894 58.121C351.688 59.0137 351.516 59.7003 351.379 60.181C351.31 60.6617 351.276 61.2797 351.276 62.035C351.276 63.4083 351.653 64.61 352.409 65.64C353.233 66.67 353.748 67.3567 353.954 67.7C354.16 67.906 354.331 68.0433 354.469 68.112C354.675 68.112 354.949 68.2837 355.293 68.627C355.979 68.9703 356.632 69.039 357.25 68.833C357.868 68.5583 358.554 68.2493 359.31 67.906H359.928C360.546 67.5627 361.061 67.2193 361.473 66.876C361.885 66.5327 362.262 66.0177 362.606 65.331V64.919ZM383.959 42.877C383.959 42.671 383.925 42.465 383.856 42.259C383.787 42.053 383.787 41.847 383.856 41.641C383.925 41.641 384.028 41.641 384.165 41.641C384.371 41.5723 384.543 41.538 384.68 41.538H385.298C385.641 41.4693 385.985 41.4693 386.328 41.538C386.671 41.538 387.015 41.5037 387.358 41.435H390.448C390.585 41.435 390.723 41.5037 390.86 41.641C390.997 41.7783 391.1 41.8813 391.169 41.95L391.375 42.877C391.375 43.083 391.409 43.3233 391.478 43.598C391.615 44.1473 391.684 44.731 391.684 45.349C391.753 45.555 391.787 45.761 391.787 45.967C391.787 46.379 391.821 46.585 391.89 46.585C392.165 46.3103 392.371 46.0357 392.508 45.761C392.645 45.4177 392.817 45.1773 393.023 45.04C393.229 44.834 393.366 44.6967 393.435 44.628C393.572 44.5593 393.675 44.4907 393.744 44.422C393.881 44.3533 394.053 44.2847 394.259 44.216C394.465 44.0787 394.774 43.8727 395.186 43.598C395.804 43.2547 396.353 42.98 396.834 42.774C397.383 42.568 398.207 42.1903 399.306 41.641C399.512 41.5723 399.855 41.4693 400.336 41.332C400.885 41.1947 401.469 41.0917 402.087 41.023C402.705 40.8857 403.323 40.817 403.941 40.817C404.628 40.7483 405.211 40.714 405.692 40.714C406.447 40.7827 407.065 40.8857 407.546 41.023C408.027 41.0917 408.679 41.1947 409.503 41.332C409.846 41.4007 410.396 41.4693 411.151 41.538C411.975 41.6067 412.524 41.7097 412.799 41.847C414.516 42.8083 415.889 43.6323 416.919 44.319C417.949 45.0057 418.842 45.9327 419.597 47.1C419.734 47.2373 419.94 47.409 420.215 47.615C420.49 47.7523 420.799 47.9927 421.142 48.336C421.485 48.6793 421.794 49.16 422.069 49.778C422.412 50.3273 422.584 50.6707 422.584 50.808C422.859 51.9753 423.168 52.9367 423.511 53.692C423.854 54.3787 424.06 55.3057 424.129 56.473C424.198 57.0223 424.369 57.6403 424.644 58.327C424.919 58.945 425.056 59.5973 425.056 60.284C425.056 60.9707 425.09 61.7603 425.159 62.653C425.228 63.477 425.193 64.6787 425.056 66.258C425.056 66.7387 425.056 67.185 425.056 67.597C425.125 68.009 425.159 68.421 425.159 68.833V73.571C425.159 74.0517 425.159 74.498 425.159 74.91C425.159 75.322 425.125 75.734 425.056 76.146C425.056 76.6953 425.056 77.176 425.056 77.588C425.125 78 425.159 78.4807 425.159 79.03C425.159 79.1673 425.159 79.3047 425.159 79.442C425.159 79.648 425.09 79.7853 424.953 79.854C424.816 79.9227 424.61 79.957 424.335 79.957C424.129 79.957 423.957 79.957 423.82 79.957C423.202 79.957 422.618 79.957 422.069 79.957C421.52 80.0257 420.936 80.0257 420.318 79.957L417.228 79.648C416.953 79.5793 416.576 79.5793 416.095 79.648C415.614 79.7167 415.305 79.6137 415.168 79.339C415.099 77.7597 415.065 76.661 415.065 76.043C415.134 75.3563 415.168 74.7383 415.168 74.189C415.168 73.8457 415.134 73.4337 415.065 72.953C414.996 72.4037 414.928 71.6827 414.859 70.79L415.168 65.331C415.168 64.6443 415.134 64.1293 415.065 63.786C415.065 63.374 415.031 63.065 414.962 62.859C414.962 62.5843 414.928 62.2753 414.859 61.932C414.859 61.5887 414.859 61.0393 414.859 60.284C414.859 59.048 414.619 57.812 414.138 56.576C413.726 55.34 413.211 54.104 412.593 52.868C412.25 52.1813 411.803 51.5633 411.254 51.014C410.705 50.4647 409.984 49.984 409.091 49.572C408.954 49.5033 408.782 49.4347 408.576 49.366C408.37 49.2973 408.198 49.263 408.061 49.263L405.692 49.057C404.525 48.9883 403.323 49.1943 402.087 49.675C400.851 50.1557 400.096 50.6363 399.821 51.117C399.34 51.941 398.963 52.559 398.688 52.971C398.413 53.383 398.139 53.795 397.864 54.207C397.795 54.413 397.692 54.7907 397.555 55.34C397.418 55.8207 397.246 56.4387 397.04 57.194C396.903 57.8807 396.765 58.636 396.628 59.46C396.491 60.2153 396.422 60.902 396.422 61.52C396.422 62.0007 396.422 62.4813 396.422 62.962C396.422 63.374 396.388 63.786 396.319 64.198L396.113 67.082L395.495 70.996C395.495 71.6827 395.495 72.438 395.495 73.262C395.495 74.0173 395.461 74.7383 395.392 75.425V77.794C394.98 78.0687 394.637 78.206 394.362 78.206C393.607 78.3433 393.057 78.4807 392.714 78.618C392.439 78.7553 391.89 78.7897 391.066 78.721C390.311 78.6523 389.315 78.6523 388.079 78.721C386.843 78.8583 385.847 78.8583 385.092 78.721C384.337 78.5837 383.959 78.4807 383.959 78.412C383.959 78.412 383.959 78.2403 383.959 77.897C383.959 77.6223 383.959 77.2103 383.959 76.661C384.028 76.043 384.062 75.425 384.062 74.807C384.062 74.1203 384.062 73.468 384.062 72.85C384.131 72.232 384.165 71.7513 384.165 71.408C384.165 70.172 384.131 69.142 384.062 68.318C383.993 67.494 383.959 66.464 383.959 65.228C383.959 64.198 383.925 63.374 383.856 62.756C383.856 62.0693 383.822 61.211 383.753 60.181C383.753 59.6317 383.787 58.945 383.856 58.121C383.925 57.2283 383.959 56.3013 383.959 55.34C383.959 54.1727 383.925 53.0397 383.856 51.941C383.856 50.8423 383.856 50.0183 383.856 49.469C383.787 48.3017 383.753 47.203 383.753 46.173C383.753 45.0743 383.822 43.9757 383.959 42.877ZM442.456 69.039C442.593 70.4123 442.627 71.6483 442.559 72.747C442.49 73.8457 442.387 74.8757 442.25 75.837C442.25 76.249 442.147 76.558 441.941 76.764C441.254 76.9013 440.464 77.0387 439.572 77.176C438.679 77.2447 437.855 77.2447 437.1 77.176C436.482 77.1073 435.864 77.1417 435.246 77.279C434.628 77.3477 434.181 77.382 433.907 77.382C433.907 76.97 433.872 76.5923 433.804 76.249C433.735 75.9057 433.735 75.425 433.804 74.807C433.872 74.2577 433.872 73.674 433.804 73.056C433.804 72.438 433.804 71.8543 433.804 71.305V66.258C433.735 64.6787 433.701 63.065 433.701 61.417C433.701 59.769 433.666 58.6703 433.598 58.121C433.529 57.503 433.529 56.885 433.598 56.267C433.735 55.649 433.804 55.031 433.804 54.413C433.735 53.4517 433.701 52.4903 433.701 51.529C433.769 50.499 433.804 49.5033 433.804 48.542C433.804 47.718 433.769 46.6537 433.701 45.349C433.632 43.9757 433.666 42.877 433.804 42.053C434.353 41.9157 435.04 41.847 435.864 41.847C436.688 41.847 437.58 41.8127 438.542 41.744C439.297 41.6753 440.052 41.641 440.808 41.641C441.563 41.641 442.112 41.641 442.456 41.641C442.593 41.641 442.627 41.847 442.559 42.259C442.559 42.6023 442.559 42.8427 442.559 42.98C442.49 44.6967 442.49 46.2073 442.559 47.512C442.627 48.748 442.593 50.0527 442.456 51.426C442.524 52.7993 442.524 54.001 442.456 55.031C442.456 55.9923 442.387 57.1597 442.25 58.533C442.25 58.739 442.25 59.2883 442.25 60.181C442.25 61.0737 442.284 62.1037 442.353 63.271C442.421 64.3697 442.456 65.4683 442.456 66.567C442.456 67.597 442.456 68.421 442.456 69.039ZM433.701 35.049C433.632 34.7057 433.598 34.1907 433.598 33.504C433.666 32.8173 433.701 32.0963 433.701 31.341C433.701 30.9977 433.666 30.6887 433.598 30.414C433.598 30.1393 433.598 29.8647 433.598 29.59C433.598 29.4527 433.598 29.3497 433.598 29.281C433.666 29.2123 433.701 29.1093 433.701 28.972H441.117C441.46 28.972 441.666 29.0063 441.735 29.075C441.803 29.075 441.838 29.2467 441.838 29.59V36.285C441.426 36.3537 440.773 36.388 439.881 36.388C439.057 36.388 438.198 36.388 437.306 36.388C436.413 36.388 435.589 36.388 434.834 36.388C434.147 36.3193 433.804 36.2163 433.804 36.079C433.735 35.873 433.701 35.5297 433.701 35.049ZM469.591 13.625C470.621 13.2817 471.72 13.0757 472.887 13.007C474.123 12.9383 475.256 12.904 476.286 12.904H480.303V18.26C480.097 18.26 479.926 18.2943 479.788 18.363C479.651 18.363 479.514 18.363 479.376 18.363H478.964C478.621 18.363 478.381 18.4317 478.243 18.569C478.106 18.7063 477.866 18.775 477.522 18.775C476.561 19.1183 475.703 19.4617 474.947 19.805C474.261 20.1483 473.574 20.4917 472.887 20.835C472.544 21.1783 472.201 21.556 471.857 21.968C471.583 22.3113 471.274 22.8263 470.93 23.513C470.587 24.1997 470.278 24.8863 470.003 25.573C469.729 26.191 469.591 26.809 469.591 27.427C469.591 28.457 469.454 29.59 469.179 30.826C468.973 31.9933 468.87 33.092 468.87 34.122C468.87 35.0833 468.767 35.976 468.561 36.8C468.424 37.5553 468.355 38.448 468.355 39.478V40.714L469.694 40.92C469.9 40.92 470.312 40.9887 470.93 41.126C471.548 41.2633 472.201 41.332 472.887 41.332C473.505 41.332 474.089 41.3663 474.638 41.435C475.256 41.435 475.634 41.435 475.771 41.435H477.522C477.522 42.1217 477.522 42.6367 477.522 42.98C477.591 43.2547 477.591 43.701 477.522 44.319C477.522 44.525 477.488 44.834 477.419 45.246C477.351 45.5893 477.282 45.8983 477.213 46.173C477.145 46.3103 477.11 46.379 477.11 46.379C477.179 46.379 477.145 46.5507 477.007 46.894C476.939 46.9627 476.767 46.9627 476.492 46.894C476.218 46.8253 475.806 46.8253 475.256 46.894C475.05 46.894 474.638 46.997 474.02 47.203C473.471 47.409 472.887 47.4777 472.269 47.409C471.995 47.409 471.686 47.4433 471.342 47.512C470.999 47.5807 470.69 47.6493 470.415 47.718C470.003 47.7867 469.626 47.8553 469.282 47.924C468.939 47.9927 468.561 48.027 468.149 48.027C468.012 49.4003 467.84 51.117 467.634 53.177C467.428 55.237 467.291 56.9537 467.222 58.327C467.154 59.2197 467.188 60.078 467.325 60.902C467.463 61.6573 467.463 62.4127 467.325 63.168C467.325 63.374 467.36 63.58 467.428 63.786C467.497 63.992 467.463 64.1637 467.325 64.301C467.257 64.713 467.222 65.537 467.222 66.773C467.222 68.009 467.222 69.245 467.222 70.481C467.222 71.717 467.222 72.7813 467.222 73.674C467.291 74.498 467.325 74.7383 467.325 74.395C467.463 74.7383 467.531 75.1847 467.531 75.734C467.6 76.2147 467.634 76.6267 467.634 76.97C467.703 77.794 467.703 78.618 467.634 79.442C467.634 80.3347 467.634 80.8497 467.634 80.987C467.497 81.1243 467.36 81.2273 467.222 81.296C467.016 81.502 466.707 81.605 466.295 81.605C465.952 81.605 465.506 81.6393 464.956 81.708C464.476 81.7767 464.064 81.811 463.72 81.811C463.377 81.811 462.896 81.8453 462.278 81.914C461.729 82.0513 461.283 82.12 460.939 82.12C460.321 82.12 459.532 82.1887 458.57 82.326C457.609 82.4633 456.785 82.532 456.098 82.532C456.098 81.8453 456.03 81.296 455.892 80.884C455.755 80.5407 455.755 80.0257 455.892 79.339C455.892 79.2703 455.858 78.927 455.789 78.309C455.789 77.691 455.789 77.0043 455.789 76.249C455.789 75.425 455.755 74.704 455.686 74.086C455.686 73.468 455.686 73.1247 455.686 73.056C455.549 72.3693 455.48 71.408 455.48 70.172C455.549 68.936 455.583 67.6657 455.583 66.361C455.583 65.4683 455.583 64.301 455.583 62.859C455.652 61.3483 455.721 60.0093 455.789 58.842C455.789 58.2927 455.789 57.4 455.789 56.164C455.858 54.928 455.927 54.001 455.995 53.383C456.064 52.6277 456.03 51.941 455.892 51.323C455.755 50.705 455.686 50.0527 455.686 49.366V48.027C454.725 47.8897 453.661 47.821 452.493 47.821C451.326 47.7523 450.296 47.821 449.403 48.027C449.197 47.8897 449.026 47.6837 448.888 47.409C448.888 46.7223 448.888 46.07 448.888 45.452C448.957 44.7653 448.991 44.113 448.991 43.495V42.053C449.335 41.7097 449.575 41.538 449.712 41.538C449.85 41.4693 450.09 41.435 450.433 41.435C451.12 41.435 452.013 41.435 453.111 41.435C454.21 41.3663 455.103 41.3663 455.789 41.435C456.064 41.435 456.201 41.4007 456.201 41.332C456.27 41.2633 456.27 41.1603 456.201 41.023C456.201 40.8857 456.201 40.7483 456.201 40.611C456.201 40.405 456.27 40.199 456.407 39.993C456.407 39.0317 456.442 38.3793 456.51 38.036C456.579 37.624 456.613 36.903 456.613 35.873C456.613 34.3623 456.682 32.9547 456.819 31.65C456.957 30.2767 457.025 28.869 457.025 27.427C457.025 26.9463 457.06 26.603 457.128 26.397C457.266 26.1223 457.369 25.8133 457.437 25.47C457.506 24.646 457.643 23.8907 457.849 23.204L459.394 19.908C459.944 18.9467 460.459 18.2257 460.939 17.745C461.489 17.1957 462.004 16.6463 462.484 16.097C463.102 15.3417 463.514 14.9297 463.72 14.861C463.995 14.7923 464.201 14.758 464.338 14.758C464.476 14.758 464.682 14.6893 464.956 14.552C465.231 14.346 465.609 14.1743 466.089 14.037C466.639 13.8997 467.188 13.7967 467.737 13.728C468.355 13.5907 468.733 13.5563 468.87 13.625H469.591ZM490.339 69.039C490.476 70.4123 490.51 71.6483 490.442 72.747C490.373 73.8457 490.27 74.8757 490.133 75.837C490.133 76.249 490.03 76.558 489.824 76.764C489.137 76.9013 488.347 77.0387 487.455 77.176C486.562 77.2447 485.738 77.2447 484.983 77.176C484.365 77.1073 483.747 77.1417 483.129 77.279C482.511 77.3477 482.064 77.382 481.79 77.382C481.79 76.97 481.755 76.5923 481.687 76.249C481.618 75.9057 481.618 75.425 481.687 74.807C481.755 74.2577 481.755 73.674 481.687 73.056C481.687 72.438 481.687 71.8543 481.687 71.305V66.258C481.618 64.6787 481.584 63.065 481.584 61.417C481.584 59.769 481.549 58.6703 481.481 58.121C481.412 57.503 481.412 56.885 481.481 56.267C481.618 55.649 481.687 55.031 481.687 54.413C481.618 53.4517 481.584 52.4903 481.584 51.529C481.652 50.499 481.687 49.5033 481.687 48.542C481.687 47.718 481.652 46.6537 481.584 45.349C481.515 43.9757 481.549 42.877 481.687 42.053C482.236 41.9157 482.923 41.847 483.747 41.847C484.571 41.847 485.463 41.8127 486.425 41.744C487.18 41.6753 487.935 41.641 488.691 41.641C489.446 41.641 489.995 41.641 490.339 41.641C490.476 41.641 490.51 41.847 490.442 42.259C490.442 42.6023 490.442 42.8427 490.442 42.98C490.373 44.6967 490.373 46.2073 490.442 47.512C490.51 48.748 490.476 50.0527 490.339 51.426C490.407 52.7993 490.407 54.001 490.339 55.031C490.339 55.9923 490.27 57.1597 490.133 58.533C490.133 58.739 490.133 59.2883 490.133 60.181C490.133 61.0737 490.167 62.1037 490.236 63.271C490.304 64.3697 490.339 65.4683 490.339 66.567C490.339 67.597 490.339 68.421 490.339 69.039ZM481.584 35.049C481.515 34.7057 481.481 34.1907 481.481 33.504C481.549 32.8173 481.584 32.0963 481.584 31.341C481.584 30.9977 481.549 30.6887 481.481 30.414C481.481 30.1393 481.481 29.8647 481.481 29.59C481.481 29.4527 481.481 29.3497 481.481 29.281C481.549 29.2123 481.584 29.1093 481.584 28.972H489C489.343 28.972 489.549 29.0063 489.618 29.075C489.686 29.075 489.721 29.2467 489.721 29.59V36.285C489.309 36.3537 488.656 36.388 487.764 36.388C486.94 36.388 486.081 36.388 485.189 36.388C484.296 36.388 483.472 36.388 482.717 36.388C482.03 36.3193 481.687 36.2163 481.687 36.079C481.618 35.873 481.584 35.5297 481.584 35.049ZM516.753 50.19C515.929 50.3273 515.174 50.5333 514.487 50.808C513.801 51.0827 513.148 51.5977 512.53 52.353C511.569 53.3143 510.882 54.413 510.47 55.649C510.127 56.885 509.955 58.2927 509.955 59.872V62.447C510.299 63.1337 510.539 63.889 510.676 64.713C510.814 65.537 511.226 66.258 511.912 66.876C512.256 67.494 512.702 68.112 513.251 68.73C513.801 69.348 514.35 70.0347 514.899 70.79C515.243 70.996 515.689 71.1677 516.238 71.305C516.788 71.3737 517.234 71.5797 517.577 71.923C518.47 72.2663 519.5 72.4723 520.667 72.541C521.835 72.541 522.899 72.541 523.86 72.541C524.341 72.4723 524.822 72.3693 525.302 72.232C525.783 72.026 526.538 71.923 527.568 71.923C527.912 71.7857 528.186 71.923 528.392 72.335C528.598 72.6783 528.804 73.1247 529.01 73.674C529.216 74.0173 529.422 74.4637 529.628 75.013C529.834 75.4937 530.006 75.94 530.143 76.352C530.281 76.6267 530.418 76.9013 530.555 77.176C530.761 77.382 530.864 77.691 530.864 78.103C530.727 78.1717 530.555 78.2747 530.349 78.412C530.143 78.618 529.903 78.7897 529.628 78.927C529.491 79.2703 529.182 79.4763 528.701 79.545C528.221 79.6823 527.843 79.8883 527.568 80.163C525.096 81.399 522.59 82.017 520.049 82.017C519.431 82.017 518.848 82.017 518.298 82.017C517.749 82.0857 517.062 82.0857 516.238 82.017C515.62 82.017 514.796 81.8453 513.766 81.502C513.354 81.502 512.736 81.502 511.912 81.502C511.088 81.502 510.47 81.4677 510.058 81.399C509.715 81.3303 509.372 81.193 509.028 80.987C508.754 80.781 508.445 80.6093 508.101 80.472C507.758 80.3347 507.415 80.1973 507.071 80.06C506.728 79.9227 506.385 79.7853 506.041 79.648C505.286 79.3047 504.599 78.7553 503.981 78C503.432 77.3133 502.814 76.661 502.127 76.043C501.509 75.4937 500.823 74.7727 500.067 73.88C499.381 72.9187 498.969 72.129 498.831 71.511C498.557 70.7557 498.179 69.9317 497.698 69.039C497.286 68.1463 497.046 67.2193 496.977 66.258C496.84 65.846 496.771 65.5027 496.771 65.228C496.771 64.9533 496.771 64.6787 496.771 64.404V59.872C496.771 58.2927 496.806 56.885 496.874 55.649C497.012 54.3443 497.389 53.074 498.007 51.838C498.351 51.1513 498.66 50.396 498.934 49.572C499.278 48.748 499.793 47.9927 500.479 47.306C500.479 46.9627 500.617 46.6537 500.891 46.379C501.166 46.0357 501.475 45.761 501.818 45.555L503.569 43.598C504.325 43.2547 504.908 42.9457 505.32 42.671C505.732 42.3277 506.213 41.9843 506.762 41.641C507.724 41.2977 508.651 41.023 509.543 40.817C510.436 40.5423 511.226 40.405 511.912 40.405C513.011 40.199 513.904 40.0273 514.59 39.89C515.346 39.684 516.307 39.787 517.474 40.199C518.092 40.2677 518.71 40.3707 519.328 40.508C520.015 40.5767 520.633 40.7483 521.182 41.023C521.732 41.1603 522.144 41.2633 522.418 41.332C522.693 41.4007 523.036 41.5037 523.448 41.641C524.135 41.7783 524.787 42.0187 525.405 42.362C526.092 42.7053 526.71 43.0487 527.259 43.392L527.98 43.598C528.049 43.598 528.049 43.8727 527.98 44.422C527.98 44.9027 527.912 45.4177 527.774 45.967C527.637 46.3103 527.568 46.688 527.568 47.1C527.568 47.4433 527.568 47.9583 527.568 48.645V50.499C527.568 50.6363 527.465 50.808 527.259 51.014C527.191 51.0827 527.122 51.117 527.053 51.117C526.71 51.117 526.401 51.0827 526.126 51.014C525.852 50.8767 525.543 50.808 525.199 50.808C524.719 50.6707 524.135 50.499 523.448 50.293C522.762 50.0183 522.178 49.881 521.697 49.881C520.805 49.881 519.946 49.881 519.122 49.881C518.367 49.881 517.577 49.984 516.753 50.19ZM572.953 80.472L572.232 80.575C571.888 80.6437 571.648 80.6437 571.511 80.575C571.442 80.575 571.133 80.575 570.584 80.575C570.515 80.575 570.309 80.6093 569.966 80.678C569.622 80.7467 569.245 80.8153 568.833 80.884C568.421 80.9527 567.974 80.9527 567.494 80.884C567.013 80.884 566.635 80.8153 566.361 80.678C566.017 80.678 565.777 80.6437 565.64 80.575C565.502 80.5063 565.262 80.472 564.919 80.472C564.575 80.1973 564.369 79.7853 564.301 79.236C564.301 78.6867 564.301 78.2403 564.301 77.897V75.322L563.477 76.455L561.623 78.206C560.936 78.6867 560.352 79.0643 559.872 79.339C559.46 79.6823 558.945 80.0257 558.327 80.369C557.297 80.987 556.164 81.399 554.928 81.605C553.76 81.811 552.662 81.914 551.632 81.914C550.602 81.914 549.503 81.708 548.336 81.296C547.237 80.884 546.241 80.5063 545.349 80.163C545.074 80.0943 544.799 79.957 544.525 79.751C544.319 79.6137 544.113 79.4763 543.907 79.339C543.495 78.9957 543.014 78.6523 542.465 78.309C541.984 77.9657 541.572 77.6223 541.229 77.279C541.023 77.1417 540.817 77.0043 540.611 76.867C540.473 76.661 540.267 76.4893 539.993 76.352C539.649 76.146 539.34 75.8027 539.066 75.322C538.722 74.5667 538.276 73.8457 537.727 73.159C537.246 72.4037 536.834 71.5453 536.491 70.584C536.285 69.8287 536.01 69.1077 535.667 68.421C535.323 67.7343 535.152 67.082 535.152 66.464C535.152 66.1207 535.117 65.537 535.049 64.713C534.98 63.889 534.946 63.3053 534.946 62.962C534.946 62.344 534.946 61.8633 534.946 61.52C535.014 61.1767 535.049 60.6617 535.049 59.975C535.049 59.6317 535.083 59.2883 535.152 58.945C535.289 58.533 535.426 58.018 535.564 57.4C535.701 56.6447 535.804 55.855 535.873 55.031C535.941 54.1383 536.044 53.4173 536.182 52.868C536.662 51.9753 536.971 51.426 537.109 51.22C537.315 51.014 537.486 50.6363 537.624 50.087C537.761 49.675 537.933 49.16 538.139 48.542C538.413 47.8553 538.791 47.3403 539.272 46.997C539.478 46.8597 539.787 46.6193 540.199 46.276C540.611 45.9327 541.023 45.555 541.435 45.143C541.915 44.731 542.327 44.3877 542.671 44.113C543.014 43.7697 543.254 43.598 543.392 43.598L545.246 42.774C545.795 42.568 546.413 42.4307 547.1 42.362C547.786 42.2247 548.439 42.156 549.057 42.156L552.25 42.053C552.593 42.053 552.971 42.053 553.383 42.053C553.863 42.053 554.172 42.0873 554.31 42.156C554.653 42.156 554.996 42.259 555.34 42.465C555.683 42.671 556.026 42.774 556.37 42.774C556.713 42.774 557.125 42.9113 557.606 43.186C558.155 43.392 558.601 43.6667 558.945 44.01C559.631 44.2847 560.146 44.628 560.49 45.04C560.902 45.3833 561.279 45.7267 561.623 46.07C561.966 46.4133 562.275 46.7567 562.55 47.1C562.893 47.3747 563.236 47.6837 563.58 48.027C563.58 48.233 563.717 48.4047 563.992 48.542C564.129 48.6107 564.232 48.6793 564.301 48.748C564.438 48.6107 564.507 48.336 564.507 47.924C564.575 47.512 564.713 47.1343 564.919 46.791C564.987 45.8297 565.022 44.9713 565.022 44.216C565.09 43.392 565.159 42.8427 565.228 42.568C565.159 42.2933 565.193 41.9157 565.331 41.435C565.468 40.8857 565.708 40.6797 566.052 40.817C566.189 40.7483 566.498 40.7483 566.979 40.817C567.459 40.8857 568.009 40.9887 568.627 41.126C569.245 41.1947 569.863 41.2633 570.481 41.332C571.167 41.4007 571.751 41.435 572.232 41.435C572.3 41.435 572.335 41.6067 572.335 41.95C572.335 42.2933 572.3 42.568 572.232 42.774L572.85 52.662V63.786C572.85 63.992 572.815 64.198 572.747 64.404C572.747 64.61 572.747 64.816 572.747 65.022C572.815 65.64 572.85 66.2923 572.85 66.979C572.85 67.597 572.85 68.2493 572.85 68.936C572.918 69.4167 572.918 69.9317 572.85 70.481C572.85 70.9617 572.85 71.4767 572.85 72.026C572.85 72.438 572.85 73.0217 572.85 73.777C572.918 74.4637 572.953 75.1847 572.953 75.94C572.953 76.6953 572.953 77.4163 572.953 78.103C572.953 78.8583 572.953 79.4763 572.953 79.957V80.472ZM559.666 64.919V64.61C559.666 64.198 559.734 63.3053 559.872 61.932C560.009 60.49 559.7 58.739 558.945 56.679C558.739 56.1297 558.43 55.546 558.018 54.928C557.606 54.31 556.953 53.8293 556.061 53.486C555.58 53.3487 555.134 53.2113 554.722 53.074C554.31 52.868 553.863 52.7993 553.383 52.868C552.902 53.0053 552.284 53.3143 551.529 53.795C550.842 54.2757 550.258 54.8593 549.778 55.546C549.434 55.8893 549.228 56.267 549.16 56.679C549.091 57.091 549.022 57.5717 548.954 58.121C548.748 59.0137 548.576 59.7003 548.439 60.181C548.37 60.6617 548.336 61.2797 548.336 62.035C548.336 63.4083 548.713 64.61 549.469 65.64C550.293 66.67 550.808 67.3567 551.014 67.7C551.22 67.906 551.391 68.0433 551.529 68.112C551.735 68.112 552.009 68.2837 552.353 68.627C553.039 68.9703 553.692 69.039 554.31 68.833C554.928 68.5583 555.614 68.2493 556.37 67.906H556.988C557.606 67.5627 558.121 67.2193 558.533 66.876C558.945 66.5327 559.322 66.0177 559.666 65.331V64.919Z" fill="#D4A6FF"/>
</svg>
