<svg width="403" height="185" viewBox="0 0 403 185" fill="none" xmlns="http://www.w3.org/2000/svg">
<circle cx="201" cy="55" r="55" fill="#5F5188" fill-opacity="0.83"/>
<path d="M154.732 24.556C154.457 25.4487 154.389 26.41 154.526 27.44C154.663 28.47 154.732 29.4657 154.732 30.427C154.457 30.427 153.942 30.53 153.187 30.736C152.5 30.8733 151.848 30.9763 151.23 31.045C150.955 31.045 150.646 31.045 150.303 31.045C149.96 30.9763 149.685 30.9763 149.479 31.045L147.522 31.457H141.754C140.312 31.5257 139.007 31.56 137.84 31.56C136.741 31.4913 135.471 31.457 134.029 31.457C133.754 31.457 133.342 31.4913 132.793 31.56C132.312 31.6287 131.969 31.6287 131.763 31.56C131.763 31.9033 131.729 32.178 131.66 32.384C131.591 32.59 131.557 32.8647 131.557 33.208C131.626 33.414 131.66 33.929 131.66 34.753C131.729 35.577 131.763 36.504 131.763 37.534C131.832 38.4953 131.866 39.388 131.866 40.212C131.935 41.036 131.969 41.551 131.969 41.757V46.392C131.969 46.9413 131.969 47.3877 131.969 47.731C132.038 48.0743 132.141 48.555 132.278 49.173H138.252C139.351 49.173 140.381 49.2073 141.342 49.276C142.303 49.3447 143.368 49.379 144.535 49.379C145.153 49.379 145.874 49.4133 146.698 49.482C147.591 49.5507 148.277 49.5163 148.758 49.379C148.827 49.997 148.895 50.6493 148.964 51.336C149.033 52.0227 149.067 52.6407 149.067 53.19V54.838C148.792 54.838 148.277 54.8723 147.522 54.941C146.767 55.0097 146.08 55.0783 145.462 55.147H141.136C139.763 55.353 138.492 55.456 137.325 55.456C136.158 55.456 134.853 55.456 133.411 55.456C133.136 55.456 132.793 55.4903 132.381 55.559C131.969 55.6277 131.66 55.6277 131.454 55.559V59.37C131.454 60.3313 131.454 61.327 131.454 62.357C131.523 63.387 131.66 64.2797 131.866 65.035C131.866 66.271 131.866 67.4383 131.866 68.537C131.935 69.567 131.969 70.5283 131.969 71.421V73.172C132.106 73.1033 132.518 73.1377 133.205 73.275C133.96 73.4123 134.853 73.5497 135.883 73.687C136.913 73.8243 137.771 73.9273 138.458 73.996C139.213 74.0647 139.9 74.202 140.518 74.408C140.861 74.5453 141.582 74.6483 142.681 74.717C143.848 74.717 144.604 74.717 144.947 74.717C146.664 74.923 148.346 75.0603 149.994 75.129C151.642 75.1977 153.324 75.3007 155.041 75.438H158.749C159.024 75.438 159.333 75.4037 159.676 75.335C160.019 75.1977 160.26 75.129 160.397 75.129C160.74 76.365 160.912 77.5667 160.912 78.734C160.981 79.9013 161.015 81.0687 161.015 82.236C160.466 82.5793 159.779 82.751 158.955 82.751C158.131 82.751 157.341 82.7853 156.586 82.854C156.105 82.854 155.59 82.8197 155.041 82.751C154.492 82.6823 153.942 82.648 153.393 82.648C152.02 82.7167 150.372 82.7167 148.449 82.648C146.595 82.5793 144.981 82.6137 143.608 82.751H142.063C141.308 82.6137 140.243 82.5107 138.87 82.442C137.565 82.3733 136.57 82.339 135.883 82.339C135.128 82.2703 133.926 82.2703 132.278 82.339C130.63 82.4763 127.883 82.5793 124.038 82.648C123.901 82.648 123.42 82.648 122.596 82.648C121.841 82.648 120.982 82.648 120.021 82.648C119.128 82.7167 118.27 82.751 117.446 82.751C116.691 82.8197 116.244 82.854 116.107 82.854C116.107 81.412 116.004 80.0043 115.798 78.631C115.661 77.2577 115.592 75.9873 115.592 74.82C115.592 74.1333 115.558 73.3437 115.489 72.451C115.42 71.5583 115.455 70.803 115.592 70.185C115.729 67.9877 115.764 65.8247 115.695 63.696C115.695 61.5673 115.695 59.4043 115.695 57.207C115.695 56.7263 115.661 55.868 115.592 54.632C115.523 53.396 115.523 52.2287 115.592 51.13L115.386 47.937C115.317 47.4563 115.352 46.598 115.489 45.362C115.695 44.0573 115.764 42.9243 115.695 41.963C115.626 40.3837 115.558 39.0103 115.489 37.843C115.42 36.607 115.352 35.165 115.283 33.517C115.214 32.075 115.214 30.6673 115.283 29.294C115.42 27.852 115.489 26.4787 115.489 25.174C115.489 24.8307 115.489 24.556 115.489 24.35C115.558 24.0753 115.764 23.8007 116.107 23.526L121.36 23.732C122.39 23.8007 123.557 23.8007 124.862 23.732C126.235 23.6633 127.437 23.6633 128.467 23.732C128.742 23.732 128.982 23.732 129.188 23.732C129.463 23.6633 129.737 23.629 130.012 23.629C130.218 23.629 130.664 23.629 131.351 23.629C132.038 23.629 132.759 23.629 133.514 23.629C134.269 23.629 134.956 23.629 135.574 23.629C136.192 23.629 136.57 23.6633 136.707 23.732C136.844 23.8007 137.256 23.8693 137.943 23.938C138.63 24.0067 139.145 24.041 139.488 24.041C139.694 24.041 140.003 24.041 140.415 24.041C140.827 23.9723 141.239 23.938 141.651 23.938C142.132 23.938 142.578 23.938 142.99 23.938C143.402 23.938 143.711 23.938 143.917 23.938C144.672 24.0753 145.359 24.144 145.977 24.144C146.664 24.0753 147.385 24.0753 148.14 24.144C148.209 24.144 148.552 24.1783 149.17 24.247C149.857 24.247 150.612 24.2813 151.436 24.35C152.26 24.4187 152.981 24.4873 153.599 24.556C154.286 24.556 154.663 24.556 154.732 24.556Z" fill="#35253D"/>
<path d="M189.544 21.157C190.231 20.8823 191.261 20.8137 192.634 20.951C194.007 21.0883 195.106 21.157 195.93 21.157C196.411 21.157 197.029 21.1913 197.784 21.26C198.608 21.26 199.466 21.3287 200.359 21.466C201.252 21.5347 202.076 21.6033 202.831 21.672C203.655 21.672 204.273 21.672 204.685 21.672C205.303 21.672 206.161 21.7063 207.26 21.775C208.359 21.775 209.183 21.9123 209.732 22.187C210.007 22.3243 210.59 22.4617 211.483 22.599C212.444 22.6677 213.028 22.7363 213.234 22.805C213.577 22.805 213.783 22.8393 213.852 22.908C213.921 22.908 214.092 23.0453 214.367 23.32C214.367 24.0067 214.264 24.659 214.058 25.277C213.921 25.8263 213.852 26.3757 213.852 26.925C213.371 26.925 212.856 26.9593 212.307 27.028C211.758 27.0967 211.277 27.1653 210.865 27.234C210.178 27.3713 209.629 27.44 209.217 27.44C208.874 27.3713 208.256 27.337 207.363 27.337C206.539 27.337 205.646 27.3713 204.685 27.44C203.792 27.5087 202.968 27.5773 202.213 27.646C201.458 27.7147 200.805 27.7833 200.256 27.852C199.775 27.9207 199.501 27.955 199.432 27.955C198.677 28.0923 197.681 28.2983 196.445 28.573C195.209 28.8477 193.939 29.191 192.634 29.603C191.329 29.9463 190.128 30.3583 189.029 30.839C187.93 31.3197 187.175 31.8003 186.763 32.281C186.145 33.1737 185.527 33.8947 184.909 34.444C184.36 34.9247 183.948 35.6457 183.673 36.607C183.536 36.8817 183.467 37.3623 183.467 38.049C183.467 38.667 183.467 39.3537 183.467 40.109C183.536 40.7957 183.639 41.4823 183.776 42.169C183.913 42.8557 184.085 43.3707 184.291 43.714C184.84 44.332 185.287 44.95 185.63 45.568C185.973 46.186 186.248 46.5637 186.454 46.701C186.935 46.9757 187.518 47.319 188.205 47.731C188.96 48.143 189.716 48.5207 190.471 48.864C190.608 48.9327 191.02 49.0357 191.707 49.173C192.462 49.2417 193.321 49.4133 194.282 49.688C194.831 49.8253 195.175 49.9283 195.312 49.997C195.449 50.0657 195.758 50.1687 196.239 50.306C196.582 50.4433 196.823 50.5463 196.96 50.615C197.097 50.6837 197.338 50.7867 197.681 50.924C198.093 51.0613 198.539 51.1987 199.02 51.336C199.569 51.4047 199.878 51.439 199.947 51.439C200.496 51.439 201.046 51.542 201.595 51.748C202.213 51.8853 202.797 51.954 203.346 51.954C204.307 52.2287 205.2 52.4347 206.024 52.572C206.848 52.7093 207.706 53.087 208.599 53.705C209.08 53.8423 209.595 54.014 210.144 54.22C210.693 54.426 211.14 54.632 211.483 54.838C211.689 54.9753 212.067 55.2157 212.616 55.559C213.234 55.8337 213.852 56.177 214.47 56.589C215.088 57.001 215.672 57.4473 216.221 57.928C216.77 58.4087 217.114 58.8207 217.251 59.164C217.938 60.2627 218.418 61.3957 218.693 62.563C218.968 63.6617 219.105 64.7947 219.105 65.962C219.105 66.3053 219.036 66.7517 218.899 67.301C218.83 67.8503 218.762 68.2967 218.693 68.64L218.178 71.524C218.041 71.8673 217.732 72.4853 217.251 73.378C216.77 74.2707 216.461 74.7857 216.324 74.923C216.255 75.0603 216.084 75.3007 215.809 75.644C215.534 75.9187 215.225 76.2277 214.882 76.571C214.607 76.8457 214.333 77.1203 214.058 77.395C213.783 77.601 213.612 77.7383 213.543 77.807C213.062 78.219 212.307 78.7683 211.277 79.455C210.316 80.1417 209.251 80.8283 208.084 81.515C206.985 82.2703 205.887 82.8883 204.788 83.369C203.758 83.9183 202.9 84.193 202.213 84.193C202.076 84.3303 201.904 84.3647 201.698 84.296C201.492 84.296 201.286 84.3647 201.08 84.502C200.325 84.502 199.604 84.5363 198.917 84.605C198.23 84.7423 197.303 84.7767 196.136 84.708C195.106 84.6393 194.11 84.6393 193.149 84.708C192.256 84.8453 191.261 84.8797 190.162 84.811C189.613 84.811 188.789 84.811 187.69 84.811C186.591 84.811 185.424 84.7767 184.188 84.708C182.952 84.708 181.75 84.6737 180.583 84.605C179.484 84.5363 178.592 84.399 177.905 84.193C177.836 84.193 177.596 84.1587 177.184 84.09C176.841 84.0213 176.429 83.9527 175.948 83.884C175.536 83.884 175.124 83.8497 174.712 83.781C174.3 83.7123 173.991 83.678 173.785 83.678C173.236 83.6093 172.412 83.5063 171.313 83.369C170.283 83.2317 169.562 83.0943 169.15 82.957C168.875 82.8197 168.566 82.6137 168.223 82.339C167.948 82.133 167.811 81.8583 167.811 81.515C167.674 81.2403 167.468 80.7253 167.193 79.97C166.987 79.146 166.781 78.322 166.575 77.498C166.369 76.6053 166.197 75.8157 166.06 75.129C165.991 74.4423 166.026 74.099 166.163 74.099C167.33 74.3737 168.498 74.6483 169.665 74.923C170.901 75.129 172.274 75.3693 173.785 75.644C174.952 75.644 176.12 75.7813 177.287 76.056C178.454 76.262 179.793 76.365 181.304 76.365C181.853 76.365 182.437 76.3307 183.055 76.262C183.673 76.1247 184.463 75.9873 185.424 75.85C185.63 75.7813 185.836 75.747 186.042 75.747C186.248 75.747 186.42 75.7127 186.557 75.644C187.587 75.644 188.789 75.335 190.162 74.717C191.535 74.0303 192.6 73.5153 193.355 73.172C193.424 73.172 193.595 73.069 193.87 72.863C194.213 72.657 194.557 72.4167 194.9 72.142C195.243 71.7987 195.552 71.4897 195.827 71.215C196.17 70.9403 196.376 70.7343 196.445 70.597L198.402 67.61C198.539 67.2667 198.711 66.889 198.917 66.477C199.192 65.9963 199.398 65.5843 199.535 65.241C199.947 64.211 199.947 62.9063 199.535 61.327C199.123 60.9837 198.78 60.606 198.505 60.194C198.299 59.782 197.99 59.3357 197.578 58.855C197.235 58.3057 196.823 57.8937 196.342 57.619C195.861 57.2757 195.346 56.9667 194.797 56.692C193.836 56.3487 192.943 56.0397 192.119 55.765C191.295 55.4217 190.608 55.25 190.059 55.25C189.098 54.9753 188.308 54.8037 187.69 54.735C187.141 54.6663 186.591 54.4947 186.042 54.22C185.149 53.9453 184.36 53.7737 183.673 53.705C183.055 53.6363 182.471 53.4303 181.922 53.087C181.029 53.087 180.24 52.984 179.553 52.778C178.935 52.5033 178.145 52.2287 177.184 51.954C176.841 51.748 176.463 51.542 176.051 51.336C175.639 51.13 175.33 50.9583 175.124 50.821C174.163 50.0657 173.339 49.4477 172.652 48.967C171.965 48.4863 171.244 47.7653 170.489 46.804C169.802 45.9113 169.322 45.3277 169.047 45.053C168.772 44.7097 168.429 44.126 168.017 43.302C167.88 42.9587 167.742 42.5123 167.605 41.963C167.468 41.345 167.365 40.7613 167.296 40.212C167.227 39.594 167.159 39.0447 167.09 38.564C167.09 38.0147 167.09 37.637 167.09 37.431C167.09 36.5383 167.124 35.8173 167.193 35.268C167.262 34.7187 167.33 34.135 167.399 33.517C167.468 32.9677 167.639 32.384 167.914 31.766C168.189 31.148 168.498 30.633 168.841 30.221C169.596 28.8477 170.455 27.8863 171.416 27.337C172.377 26.719 173.476 25.9637 174.712 25.071C174.987 24.865 175.399 24.6247 175.948 24.35C176.566 24.0067 177.184 23.6977 177.802 23.423C178.489 23.1483 179.141 22.908 179.759 22.702C180.377 22.496 180.892 22.3243 181.304 22.187C181.853 22.187 182.334 22.1183 182.746 21.981C183.158 21.775 183.673 21.672 184.291 21.672C184.84 21.672 185.252 21.6377 185.527 21.569C185.87 21.5003 186.317 21.466 186.866 21.466C187.209 21.466 187.553 21.5003 187.896 21.569C188.308 21.569 188.857 21.4317 189.544 21.157ZM234.214 72.451C234.214 72.5883 234.214 72.863 234.214 73.275C234.214 73.6183 234.214 74.0303 234.214 74.511C234.214 74.923 234.214 75.335 234.214 75.747C234.214 76.159 234.214 76.468 234.214 76.674C234.214 78.528 234.214 79.7983 234.214 80.485C234.282 81.1717 234.317 81.9957 234.317 82.957C234.317 83.163 234.179 83.3347 233.905 83.472C233.699 83.678 233.458 83.8153 233.184 83.884H226.592V82.751L226.077 75.438C226.077 74.1333 226.042 72.863 225.974 71.627C225.974 70.391 225.939 69.155 225.871 67.919V65.138C225.871 64.1767 225.836 63.2497 225.768 62.357C225.699 61.3957 225.733 60.4343 225.871 59.473V55.971C225.871 54.735 225.836 53.5333 225.768 52.366C225.768 51.13 225.733 49.9283 225.665 48.761C225.665 48.4177 225.665 48.143 225.665 47.937C225.733 47.6623 225.768 47.3533 225.768 47.01C225.768 45.568 225.733 44.2633 225.665 43.096C225.665 41.9287 225.665 40.7957 225.665 39.697C225.665 38.5297 225.665 37.328 225.665 36.092C225.665 34.856 225.63 33.4827 225.562 31.972V29.088C225.493 28.3327 225.424 27.5773 225.356 26.822C225.356 25.998 225.356 25.2083 225.356 24.453V24.144C225.356 23.8693 225.39 23.629 225.459 23.423C225.527 23.3543 225.905 23.2513 226.592 23.114C226.935 23.0453 227.381 23.0453 227.931 23.114C228.411 23.2513 228.995 23.32 229.682 23.32C230.368 23.2513 231.124 23.217 231.948 23.217C232.634 23.217 233.184 23.2857 233.596 23.423C234.076 23.5603 234.317 23.6977 234.317 23.835V39.903C234.248 40.4523 234.214 41.0017 234.214 41.551C234.282 42.0317 234.282 42.5467 234.214 43.096C234.145 43.8513 234.111 44.6067 234.111 45.362C234.179 46.1173 234.214 46.8727 234.214 47.628V49.379C234.214 49.585 234.214 49.8253 234.214 50.1C234.214 50.306 234.179 50.5463 234.111 50.821C234.042 50.9583 234.008 51.233 234.008 51.645C234.008 51.9883 234.008 52.366 234.008 52.778C234.076 53.19 234.111 53.602 234.111 54.014C234.179 54.426 234.214 54.7007 234.214 54.838C234.282 56.692 234.248 57.7907 234.111 58.134C234.042 58.4773 234.008 58.752 234.008 58.958C233.939 59.9193 233.939 60.8807 234.008 61.842C234.145 62.8033 234.214 63.7647 234.214 64.726C234.282 66.0307 234.282 67.3353 234.214 68.64C234.214 69.876 234.214 71.1463 234.214 72.451Z" fill="#35253D"/>
<path d="M25.647 148.747C26.3337 148.129 26.8487 147.477 27.192 146.79C27.5353 146.035 27.707 145.142 27.707 144.112C27.707 143.494 27.5353 142.876 27.192 142.258C26.8487 141.64 26.3337 141.159 25.647 140.816C23.999 140.198 22.3167 139.58 20.6 138.962C18.8833 138.344 17.0293 137.863 15.038 137.52C14.0767 137.177 13.0467 136.833 11.948 136.49C10.918 136.147 9.71633 135.803 8.343 135.46C5.59633 134.155 3.87967 131.958 3.193 128.868C3.193 127.563 3.193 126.293 3.193 125.057C3.193 123.821 3.502 122.551 4.12 121.246C4.532 120.285 4.87533 119.598 5.15 119.186C5.49333 118.705 5.80233 118.362 6.077 118.156C6.42033 117.881 6.72933 117.675 7.004 117.538C7.34733 117.332 7.725 117.057 8.137 116.714C9.71633 116.096 11.0553 115.65 12.154 115.375C13.3213 115.032 14.729 114.688 16.377 114.345C17.0637 114.002 17.716 113.796 18.334 113.727C19.0207 113.658 19.673 113.624 20.291 113.624H25.853C26.883 113.624 27.8443 113.624 28.737 113.624C29.6297 113.555 30.5567 113.555 31.518 113.624C33.0287 113.693 34.4363 113.83 35.741 114.036C37.0457 114.242 38.5563 114.517 40.273 114.86C41.8523 115.066 42.9853 115.306 43.672 115.581C43.5347 115.924 43.3973 116.474 43.26 117.229C43.1913 117.984 43.1227 118.74 43.054 119.495C43.054 119.632 43.0197 119.77 42.951 119.907C42.951 119.976 42.951 120.079 42.951 120.216C42.951 120.559 42.848 120.765 42.642 120.834C42.5047 120.903 42.333 120.903 42.127 120.834C41.9897 120.765 41.818 120.697 41.612 120.628C40.4447 120.491 39.243 120.422 38.007 120.422C36.771 120.422 35.535 120.456 34.299 120.525C33.063 120.594 31.827 120.731 30.591 120.937C29.355 121.143 28.1533 121.315 26.986 121.452C26.4367 121.589 25.9217 121.727 25.441 121.864C24.9603 121.933 24.4797 122.036 23.999 122.173C23.4497 122.31 22.9347 122.482 22.454 122.688C22.042 122.894 21.5613 123.169 21.012 123.512C20.3253 124.336 19.8447 125.091 19.57 125.778C19.2267 126.602 19.055 127.426 19.055 128.25C18.9177 128.593 18.9177 129.143 19.055 129.898C19.1923 130.585 19.467 131.168 19.879 131.649C20.7717 132.61 21.5957 133.228 22.351 133.503C23.6557 133.846 24.8917 134.155 26.059 134.43C27.295 134.705 28.3937 134.979 29.355 135.254C29.6983 135.254 30.076 135.323 30.488 135.46C30.9 135.597 31.2777 135.666 31.621 135.666C32.9943 135.803 34.2303 136.044 35.329 136.387C36.4277 136.662 37.6293 137.039 38.934 137.52C39.8953 137.863 40.8567 138.241 41.818 138.653C42.848 138.996 43.8437 139.477 44.805 140.095C45.5603 141.125 46.1097 142.018 46.453 142.773C46.865 143.528 47.2427 144.421 47.586 145.451V148.129C47.586 148.816 47.4487 149.468 47.174 150.086C46.8993 150.704 46.5903 151.185 46.247 151.528C45.5603 153.313 44.2213 154.858 42.23 156.163C40.9253 157.124 39.552 157.914 38.11 158.532C36.7367 159.219 35.226 159.699 33.578 159.974C31.2433 160.729 28.8743 161.141 26.471 161.21C24.1363 161.347 21.6643 161.244 19.055 160.901L13.39 160.386C12.772 160.317 12.051 160.214 11.227 160.077C10.403 159.94 9.579 159.734 8.755 159.459C7.58767 159.116 6.72933 158.91 6.18 158.841C5.69933 158.841 5.42467 158.772 5.356 158.635C5.28733 158.498 5.21867 158.36 5.15 158.223C5.08133 158.154 5.047 158.086 5.047 158.017C4.70367 157.262 4.49767 156.541 4.429 155.854C4.36033 155.236 4.15433 154.446 3.811 153.485C3.67367 153.142 3.57067 152.833 3.502 152.558C3.43333 152.283 3.36467 152.009 3.296 151.734V151.425C3.296 151.288 3.26167 151.185 3.193 151.116C3.193 151.047 3.22733 150.944 3.296 150.807C3.63933 150.807 3.914 150.841 4.12 150.91C4.39467 150.979 4.70367 151.013 5.047 151.013C5.871 151.219 6.798 151.425 7.828 151.631C8.92667 151.837 9.785 151.94 10.403 151.94C11.021 151.94 11.7077 151.974 12.463 152.043C13.2183 152.043 14.0767 152.043 15.038 152.043C15.862 152.112 16.7203 152.146 17.613 152.146C18.5057 152.146 19.3983 151.974 20.291 151.631C20.497 151.425 20.8403 151.219 21.321 151.013C21.8017 150.807 22.3167 150.601 22.866 150.395C23.4153 150.12 23.9303 149.88 24.411 149.674C24.9603 149.399 25.3723 149.09 25.647 148.747ZM83.4493 134.224C83.4493 134.567 83.2776 134.911 82.9343 135.254C82.7283 135.46 82.4193 135.597 82.0073 135.666C81.5953 135.735 81.2176 135.769 80.8743 135.769C80.3936 135.906 79.81 135.975 79.1233 135.975C78.4366 135.975 77.853 135.975 77.3723 135.975C76.411 135.975 75.69 136.009 75.2093 136.078C74.7286 136.078 73.939 136.147 72.8403 136.284L66.6603 136.799V138.035C66.6603 138.79 66.7633 139.546 66.9693 140.301C67.1753 140.988 67.553 141.709 68.1023 142.464C68.4456 143.013 68.8576 143.528 69.3383 144.009C69.819 144.49 70.2996 144.799 70.7803 144.936C71.1923 145.073 71.57 145.211 71.9133 145.348C72.2566 145.485 72.5656 145.623 72.8403 145.76C73.1836 145.829 73.4926 145.829 73.7673 145.76C75.6213 145.76 76.9603 145.554 77.7843 145.142C78.677 144.73 79.7413 144.215 80.9773 143.597C81.252 143.597 81.5266 143.46 81.8013 143.185C82.1446 142.91 82.385 142.739 82.5223 142.67C82.8656 142.533 83.3463 142.189 83.9643 141.64C84.651 141.091 85.166 140.747 85.5093 140.61C85.7153 140.747 85.784 141.228 85.7153 142.052C85.6466 142.807 85.681 143.528 85.8183 144.215V145.348V147.408C85.475 147.82 85.2003 148.129 84.9943 148.335C84.857 148.472 84.7196 148.61 84.5823 148.747C84.5136 148.884 84.3763 149.056 84.1703 149.262C83.9643 149.468 83.6553 149.777 83.2433 150.189C82.0073 151.425 80.7026 152.249 79.3293 152.661C78.574 153.073 77.75 153.382 76.8573 153.588C75.9646 153.725 75.2436 153.897 74.6943 154.103C74.351 154.172 74.042 154.206 73.7673 154.206C73.4926 154.275 73.218 154.309 72.9433 154.309H72.1193C70.8146 154.309 69.5443 154.275 68.3083 154.206C67.0723 154.206 65.7676 153.863 64.3943 153.176C63.9136 153.245 63.227 153.107 62.3343 152.764C61.5103 152.421 60.961 152.077 60.6863 151.734C59.931 151.322 59.2443 150.807 58.6263 150.189C58.077 149.571 57.459 149.022 56.7723 148.541C55.811 147.854 55.1243 147.133 54.7123 146.378C54.3003 145.623 53.9226 144.833 53.5793 144.009C53.236 143.391 52.927 142.704 52.6523 141.949C52.3776 141.194 52.103 140.438 51.8283 139.683C51.8283 138.928 51.794 138.207 51.7253 137.52C51.7253 136.833 51.7253 136.147 51.7253 135.46V131.649C51.7253 130.413 51.9656 128.937 52.4463 127.22C52.9956 125.503 53.648 124.027 54.4033 122.791C54.6093 122.516 54.8496 122.242 55.1243 121.967C55.3303 121.692 55.5706 121.418 55.8453 121.143C56.1886 120.868 56.532 120.559 56.8753 120.216C57.0813 120.147 57.2873 120.044 57.4933 119.907C57.768 119.77 58.1456 119.564 58.6263 119.289C58.8323 119.152 59.0726 118.911 59.3473 118.568C59.6906 118.225 60.137 117.984 60.6863 117.847C61.4416 117.572 62.1626 117.298 62.8493 117.023C63.536 116.68 64.051 116.508 64.3943 116.508C64.875 116.508 65.7333 116.542 66.9693 116.611C68.274 116.68 69.51 116.748 70.6773 116.817C71.2953 116.886 71.8103 116.989 72.2223 117.126C72.6343 117.263 72.9433 117.332 73.1493 117.332C73.6986 117.401 74.145 117.469 74.4883 117.538C74.9003 117.607 75.3123 117.71 75.7243 117.847C76.9603 118.259 77.853 118.705 78.4023 119.186C79.0203 119.598 79.5353 120.044 79.9473 120.525C80.222 120.868 80.4623 121.28 80.6683 121.761C80.943 122.173 81.2176 122.551 81.4923 122.894C81.8356 123.306 82.1446 123.89 82.4193 124.645C82.7626 125.332 83.003 126.018 83.1403 126.705C83.2776 127.254 83.3806 127.975 83.4493 128.868C83.518 129.761 83.5523 130.55 83.5523 131.237C83.5523 131.924 83.518 132.439 83.4493 132.782C83.4493 133.125 83.4493 133.606 83.4493 134.224ZM74.5913 128.25C74.5913 128.113 74.5913 127.872 74.5913 127.529C74.5913 127.117 74.5226 126.842 74.3853 126.705C73.836 125.812 73.0463 125.297 72.0163 125.16C71.055 124.954 70.1966 124.92 69.4413 125.057C68.9606 125.194 68.6516 125.366 68.5143 125.572C68.377 125.778 68.171 126.087 67.8963 126.499C67.759 126.636 67.656 126.774 67.5873 126.911C67.5186 127.048 67.4156 127.186 67.2783 127.323C67.141 127.46 67.038 127.666 66.9693 127.941C66.9693 128.147 66.935 128.353 66.8663 128.559C66.729 128.902 66.6603 129.143 66.6603 129.28C66.6603 129.417 66.729 129.761 66.8663 130.31C67.141 130.447 67.656 130.585 68.4113 130.722C69.2353 130.791 70.0593 130.825 70.8833 130.825C71.776 130.825 72.6 130.791 73.3553 130.722C74.1793 130.585 74.7286 130.447 75.0033 130.31C75.072 130.241 75.0033 130.07 74.7973 129.795C74.66 129.452 74.5913 128.937 74.5913 128.25Z" fill="#D4A6FF"/>
<path d="M110.978 120.216C110.978 120.079 111.081 119.907 111.287 119.701C111.356 119.632 111.459 119.598 111.596 119.598C112.969 118.293 114.343 117.298 115.716 116.611C117.089 115.856 118.6 115.306 120.248 114.963C122.239 114.208 124.196 114.208 126.119 114.963C126.874 114.963 127.458 115.1 127.87 115.375C128.282 115.581 128.831 115.684 129.518 115.684C131.166 116.027 132.539 116.645 133.638 117.538C134.737 118.431 135.801 119.529 136.831 120.834C138.136 122.551 139.063 124.267 139.612 125.984C140.161 127.701 140.779 129.555 141.466 131.546V136.181C141.123 137.554 140.882 138.756 140.745 139.786C140.676 140.816 140.47 141.812 140.127 142.773C139.784 143.803 139.269 144.799 138.582 145.76C137.964 146.653 137.14 147.442 136.11 148.129C134.668 149.571 132.917 150.67 130.857 151.425C129.484 152.112 128.248 152.661 127.149 153.073C126.05 153.416 124.849 153.725 123.544 154H112.317V156.781C112.317 158.429 112.283 160.077 112.214 161.725C112.145 163.373 111.939 165.055 111.596 166.772V182.943C111.596 184.248 110.909 184.9 109.536 184.9H103.665C103.322 182.497 103.116 180.196 103.047 177.999C102.978 175.87 102.944 173.639 102.944 171.304V151.425C102.807 149.777 102.738 148.232 102.738 146.79C102.738 145.279 102.738 143.803 102.738 142.361C102.807 140.919 102.841 139.477 102.841 138.035C102.91 136.524 102.875 134.945 102.738 133.297V131.134C102.738 130.653 102.772 130.104 102.841 129.486C102.841 128.456 102.841 127.598 102.841 126.911C102.841 126.156 102.841 125.435 102.841 124.748C102.841 124.061 102.875 123.34 102.944 122.585C103.013 121.83 103.116 120.971 103.253 120.01C103.253 119.667 103.287 119.117 103.356 118.362C103.425 117.607 103.39 116.989 103.253 116.508C103.253 116.027 103.253 115.65 103.253 115.375C103.322 115.1 103.356 114.929 103.356 114.86C103.425 114.723 103.493 114.62 103.562 114.551C103.631 114.482 103.699 114.379 103.768 114.242C104.111 114.173 104.695 114.242 105.519 114.448C106.343 114.654 107.064 114.791 107.682 114.86C108.094 114.791 108.575 114.757 109.124 114.757C109.742 114.757 110.36 114.826 110.978 114.963V120.216ZM129.209 133.091C129.14 131.924 129.037 130.859 128.9 129.898C128.763 128.937 128.522 127.941 128.179 126.911C128.179 126.842 128.145 126.739 128.076 126.602C127.939 126.327 127.767 126.19 127.561 126.19C126.806 125.572 125.844 125.16 124.677 124.954C123.578 124.679 122.548 124.885 121.587 125.572C120.557 126.533 119.733 127.666 119.115 128.971C118.497 130.207 118.188 131.512 118.188 132.885V136.181C118.188 136.799 118.325 137.554 118.6 138.447C118.875 139.34 119.184 140.129 119.527 140.816C119.527 141.159 119.664 141.4 119.939 141.537C120.282 141.606 120.626 141.812 120.969 142.155C122.274 142.498 123.613 142.464 124.986 142.052C126.428 141.571 127.492 140.507 128.179 138.859C128.522 137.898 128.728 137.005 128.797 136.181C128.866 135.288 129.003 134.258 129.209 133.091ZM156.416 127.426C156.485 127.563 156.519 127.907 156.519 128.456C156.519 129.005 156.519 129.417 156.519 129.692C156.382 130.035 156.313 130.379 156.313 130.722C156.313 130.997 156.313 131.306 156.313 131.649C156.313 132.061 156.348 132.851 156.416 134.018C156.485 135.117 156.519 135.906 156.519 136.387V138.653C156.519 139.271 156.519 139.889 156.519 140.507C156.588 141.125 156.622 141.743 156.622 142.361C156.622 142.842 156.588 143.322 156.519 143.803C156.451 144.215 156.451 144.661 156.519 145.142C156.519 145.554 156.554 145.966 156.622 146.378C156.691 146.721 156.725 147.099 156.725 147.511V156.884C156.725 157.227 156.76 157.571 156.828 157.914C156.966 158.257 156.931 158.395 156.725 158.326C156.039 158.326 155.249 158.395 154.356 158.532C153.464 158.738 152.64 158.841 151.884 158.841C151.266 158.841 150.717 158.807 150.236 158.738C149.824 158.669 149.241 158.463 148.485 158.12V156.781C148.142 155.476 147.936 154.309 147.867 153.279C147.867 152.18 147.867 151.15 147.867 150.189C147.867 149.434 147.867 148.747 147.867 148.129C147.867 147.442 147.936 146.756 148.073 146.069C148.073 145.726 148.005 145.451 147.867 145.245C147.867 145.176 147.833 145.005 147.764 144.73C147.764 144.387 147.764 144.043 147.764 143.7C147.764 143.357 147.764 143.048 147.764 142.773C147.764 142.43 147.764 142.189 147.764 142.052V137.726C147.764 136.902 147.73 136.078 147.661 135.254C147.661 134.43 147.73 133.606 147.867 132.782C147.936 132.713 147.97 132.404 147.97 131.855C148.039 131.237 148.108 130.585 148.176 129.898C148.245 129.143 148.279 128.456 148.279 127.838C148.348 127.151 148.382 126.739 148.382 126.602C148.451 125.503 148.451 124.405 148.382 123.306C148.382 122.207 148.417 121.143 148.485 120.113C148.485 118.122 148.451 116.199 148.382 114.345C148.382 112.422 148.417 110.5 148.485 108.577C148.485 107.341 148.485 106.139 148.485 104.972C148.485 103.736 148.451 102.534 148.382 101.367C148.314 100.749 148.279 100.268 148.279 99.925C148.348 99.5817 148.382 99.2727 148.382 98.998C148.451 98.6547 148.485 98.3113 148.485 97.968C148.554 97.6247 148.554 97.1097 148.485 96.423C148.485 95.7363 148.52 95.084 148.588 94.466C148.657 93.7793 148.691 93.127 148.691 92.509C148.691 91.8223 148.657 91.2387 148.588 90.758C148.588 90.2773 148.588 89.6937 148.588 89.007L149.103 88.492C149.79 88.492 150.545 88.5263 151.369 88.595C152.193 88.6637 152.914 88.6637 153.532 88.595C154.082 88.5263 154.494 88.492 154.768 88.492C155.043 88.492 155.455 88.492 156.004 88.492C156.348 88.492 156.622 88.595 156.828 88.801C156.966 91.067 156.966 93.2987 156.828 95.496C156.691 97.6933 156.622 99.9937 156.622 102.397V109.607C156.554 112.079 156.451 114.379 156.313 116.508C156.245 118.637 156.21 120.731 156.21 122.791C156.21 123.546 156.245 124.336 156.313 125.16C156.382 125.915 156.416 126.671 156.416 127.426ZM201.163 156.472L200.442 156.575C200.098 156.644 199.858 156.644 199.721 156.575C199.652 156.575 199.343 156.575 198.794 156.575C198.725 156.575 198.519 156.609 198.176 156.678C197.832 156.747 197.455 156.815 197.043 156.884C196.631 156.953 196.184 156.953 195.704 156.884C195.223 156.884 194.845 156.815 194.571 156.678C194.227 156.678 193.987 156.644 193.85 156.575C193.712 156.506 193.472 156.472 193.129 156.472C192.785 156.197 192.579 155.785 192.511 155.236C192.511 154.687 192.511 154.24 192.511 153.897V151.322L191.687 152.455L189.833 154.206C189.146 154.687 188.562 155.064 188.082 155.339C187.67 155.682 187.155 156.026 186.537 156.369C185.507 156.987 184.374 157.399 183.138 157.605C181.97 157.811 180.872 157.914 179.842 157.914C178.812 157.914 177.713 157.708 176.546 157.296C175.447 156.884 174.451 156.506 173.559 156.163C173.284 156.094 173.009 155.957 172.735 155.751C172.529 155.614 172.323 155.476 172.117 155.339C171.705 154.996 171.224 154.652 170.675 154.309C170.194 153.966 169.782 153.622 169.439 153.279C169.233 153.142 169.027 153.004 168.821 152.867C168.683 152.661 168.477 152.489 168.203 152.352C167.859 152.146 167.55 151.803 167.276 151.322C166.932 150.567 166.486 149.846 165.937 149.159C165.456 148.404 165.044 147.545 164.701 146.584C164.495 145.829 164.22 145.108 163.877 144.421C163.533 143.734 163.362 143.082 163.362 142.464C163.362 142.121 163.327 141.537 163.259 140.713C163.19 139.889 163.156 139.305 163.156 138.962C163.156 138.344 163.156 137.863 163.156 137.52C163.224 137.177 163.259 136.662 163.259 135.975C163.259 135.632 163.293 135.288 163.362 134.945C163.499 134.533 163.636 134.018 163.774 133.4C163.911 132.645 164.014 131.855 164.083 131.031C164.151 130.138 164.254 129.417 164.392 128.868C164.872 127.975 165.181 127.426 165.319 127.22C165.525 127.014 165.696 126.636 165.834 126.087C165.971 125.675 166.143 125.16 166.349 124.542C166.623 123.855 167.001 123.34 167.482 122.997C167.688 122.86 167.997 122.619 168.409 122.276C168.821 121.933 169.233 121.555 169.645 121.143C170.125 120.731 170.537 120.388 170.881 120.113C171.224 119.77 171.464 119.598 171.602 119.598L173.456 118.774C174.005 118.568 174.623 118.431 175.31 118.362C175.996 118.225 176.649 118.156 177.267 118.156L180.46 118.053C180.803 118.053 181.181 118.053 181.593 118.053C182.073 118.053 182.382 118.087 182.52 118.156C182.863 118.156 183.206 118.259 183.55 118.465C183.893 118.671 184.236 118.774 184.58 118.774C184.923 118.774 185.335 118.911 185.816 119.186C186.365 119.392 186.811 119.667 187.155 120.01C187.841 120.285 188.356 120.628 188.7 121.04C189.112 121.383 189.489 121.727 189.833 122.07C190.176 122.413 190.485 122.757 190.76 123.1C191.103 123.375 191.446 123.684 191.79 124.027C191.79 124.233 191.927 124.405 192.202 124.542C192.339 124.611 192.442 124.679 192.511 124.748C192.648 124.611 192.717 124.336 192.717 123.924C192.785 123.512 192.923 123.134 193.129 122.791C193.197 121.83 193.232 120.971 193.232 120.216C193.3 119.392 193.369 118.843 193.438 118.568C193.369 118.293 193.403 117.916 193.541 117.435C193.678 116.886 193.918 116.68 194.262 116.817C194.399 116.748 194.708 116.748 195.189 116.817C195.669 116.886 196.219 116.989 196.837 117.126C197.455 117.195 198.073 117.263 198.691 117.332C199.377 117.401 199.961 117.435 200.442 117.435C200.51 117.435 200.545 117.607 200.545 117.95C200.545 118.293 200.51 118.568 200.442 118.774L201.06 128.662V139.786C201.06 139.992 201.025 140.198 200.957 140.404C200.957 140.61 200.957 140.816 200.957 141.022C201.025 141.64 201.06 142.292 201.06 142.979C201.06 143.597 201.06 144.249 201.06 144.936C201.128 145.417 201.128 145.932 201.06 146.481C201.06 146.962 201.06 147.477 201.06 148.026C201.06 148.438 201.06 149.022 201.06 149.777C201.128 150.464 201.163 151.185 201.163 151.94C201.163 152.695 201.163 153.416 201.163 154.103C201.163 154.858 201.163 155.476 201.163 155.957V156.472ZM187.876 140.919V140.61C187.876 140.198 187.944 139.305 188.082 137.932C188.219 136.49 187.91 134.739 187.155 132.679C186.949 132.13 186.64 131.546 186.228 130.928C185.816 130.31 185.163 129.829 184.271 129.486C183.79 129.349 183.344 129.211 182.932 129.074C182.52 128.868 182.073 128.799 181.593 128.868C181.112 129.005 180.494 129.314 179.739 129.795C179.052 130.276 178.468 130.859 177.988 131.546C177.644 131.889 177.438 132.267 177.37 132.679C177.301 133.091 177.232 133.572 177.164 134.121C176.958 135.014 176.786 135.7 176.649 136.181C176.58 136.662 176.546 137.28 176.546 138.035C176.546 139.408 176.923 140.61 177.679 141.64C178.503 142.67 179.018 143.357 179.224 143.7C179.43 143.906 179.601 144.043 179.739 144.112C179.945 144.112 180.219 144.284 180.563 144.627C181.249 144.97 181.902 145.039 182.52 144.833C183.138 144.558 183.824 144.249 184.58 143.906H185.198C185.816 143.563 186.331 143.219 186.743 142.876C187.155 142.533 187.532 142.018 187.876 141.331V140.919ZM209.229 118.877C209.229 118.671 209.194 118.465 209.126 118.259C209.057 118.053 209.057 117.847 209.126 117.641C209.194 117.641 209.297 117.641 209.435 117.641C209.641 117.572 209.812 117.538 209.95 117.538H210.568C210.911 117.469 211.254 117.469 211.598 117.538C211.941 117.538 212.284 117.504 212.628 117.435H215.718C215.855 117.435 215.992 117.504 216.13 117.641C216.267 117.778 216.37 117.881 216.439 117.95L216.645 118.877C216.645 119.083 216.679 119.323 216.748 119.598C216.885 120.147 216.954 120.731 216.954 121.349C217.022 121.555 217.057 121.761 217.057 121.967C217.057 122.379 217.091 122.585 217.16 122.585C217.434 122.31 217.64 122.036 217.778 121.761C217.915 121.418 218.087 121.177 218.293 121.04C218.499 120.834 218.636 120.697 218.705 120.628C218.842 120.559 218.945 120.491 219.014 120.422C219.151 120.353 219.323 120.285 219.529 120.216C219.735 120.079 220.044 119.873 220.456 119.598C221.074 119.255 221.623 118.98 222.104 118.774C222.653 118.568 223.477 118.19 224.576 117.641C224.782 117.572 225.125 117.469 225.606 117.332C226.155 117.195 226.739 117.092 227.357 117.023C227.975 116.886 228.593 116.817 229.211 116.817C229.897 116.748 230.481 116.714 230.962 116.714C231.717 116.783 232.335 116.886 232.816 117.023C233.296 117.092 233.949 117.195 234.773 117.332C235.116 117.401 235.665 117.469 236.421 117.538C237.245 117.607 237.794 117.71 238.069 117.847C239.785 118.808 241.159 119.632 242.189 120.319C243.219 121.006 244.111 121.933 244.867 123.1C245.004 123.237 245.21 123.409 245.485 123.615C245.759 123.752 246.068 123.993 246.412 124.336C246.755 124.679 247.064 125.16 247.339 125.778C247.682 126.327 247.854 126.671 247.854 126.808C248.128 127.975 248.437 128.937 248.781 129.692C249.124 130.379 249.33 131.306 249.399 132.473C249.467 133.022 249.639 133.64 249.914 134.327C250.188 134.945 250.326 135.597 250.326 136.284C250.326 136.971 250.36 137.76 250.429 138.653C250.497 139.477 250.463 140.679 250.326 142.258C250.326 142.739 250.326 143.185 250.326 143.597C250.394 144.009 250.429 144.421 250.429 144.833V149.571C250.429 150.052 250.429 150.498 250.429 150.91C250.429 151.322 250.394 151.734 250.326 152.146C250.326 152.695 250.326 153.176 250.326 153.588C250.394 154 250.429 154.481 250.429 155.03C250.429 155.167 250.429 155.305 250.429 155.442C250.429 155.648 250.36 155.785 250.223 155.854C250.085 155.923 249.879 155.957 249.605 155.957C249.399 155.957 249.227 155.957 249.09 155.957C248.472 155.957 247.888 155.957 247.339 155.957C246.789 156.026 246.206 156.026 245.588 155.957L242.498 155.648C242.223 155.579 241.845 155.579 241.365 155.648C240.884 155.717 240.575 155.614 240.438 155.339C240.369 153.76 240.335 152.661 240.335 152.043C240.403 151.356 240.438 150.738 240.438 150.189C240.438 149.846 240.403 149.434 240.335 148.953C240.266 148.404 240.197 147.683 240.129 146.79L240.438 141.331C240.438 140.644 240.403 140.129 240.335 139.786C240.335 139.374 240.3 139.065 240.232 138.859C240.232 138.584 240.197 138.275 240.129 137.932C240.129 137.589 240.129 137.039 240.129 136.284C240.129 135.048 239.888 133.812 239.408 132.576C238.996 131.34 238.481 130.104 237.863 128.868C237.519 128.181 237.073 127.563 236.524 127.014C235.974 126.465 235.253 125.984 234.361 125.572C234.223 125.503 234.052 125.435 233.846 125.366C233.64 125.297 233.468 125.263 233.331 125.263L230.962 125.057C229.794 124.988 228.593 125.194 227.357 125.675C226.121 126.156 225.365 126.636 225.091 127.117C224.61 127.941 224.232 128.559 223.958 128.971C223.683 129.383 223.408 129.795 223.134 130.207C223.065 130.413 222.962 130.791 222.825 131.34C222.687 131.821 222.516 132.439 222.31 133.194C222.172 133.881 222.035 134.636 221.898 135.46C221.76 136.215 221.692 136.902 221.692 137.52C221.692 138.001 221.692 138.481 221.692 138.962C221.692 139.374 221.657 139.786 221.589 140.198L221.383 143.082L220.765 146.996C220.765 147.683 220.765 148.438 220.765 149.262C220.765 150.017 220.73 150.738 220.662 151.425V153.794C220.25 154.069 219.906 154.206 219.632 154.206C218.876 154.343 218.327 154.481 217.984 154.618C217.709 154.755 217.16 154.79 216.336 154.721C215.58 154.652 214.585 154.652 213.349 154.721C212.113 154.858 211.117 154.858 210.362 154.721C209.606 154.584 209.229 154.481 209.229 154.412C209.229 154.412 209.229 154.24 209.229 153.897C209.229 153.622 209.229 153.21 209.229 152.661C209.297 152.043 209.332 151.425 209.332 150.807C209.332 150.12 209.332 149.468 209.332 148.85C209.4 148.232 209.435 147.751 209.435 147.408C209.435 146.172 209.4 145.142 209.332 144.318C209.263 143.494 209.229 142.464 209.229 141.228C209.229 140.198 209.194 139.374 209.126 138.756C209.126 138.069 209.091 137.211 209.023 136.181C209.023 135.632 209.057 134.945 209.126 134.121C209.194 133.228 209.229 132.301 209.229 131.34C209.229 130.173 209.194 129.04 209.126 127.941C209.126 126.842 209.126 126.018 209.126 125.469C209.057 124.302 209.023 123.203 209.023 122.173C209.023 121.074 209.091 119.976 209.229 118.877ZM267.725 145.039C267.863 146.412 267.897 147.648 267.828 148.747C267.76 149.846 267.657 150.876 267.519 151.837C267.519 152.249 267.416 152.558 267.21 152.764C266.524 152.901 265.734 153.039 264.841 153.176C263.949 153.245 263.125 153.245 262.369 153.176C261.751 153.107 261.133 153.142 260.515 153.279C259.897 153.348 259.451 153.382 259.176 153.382C259.176 152.97 259.142 152.592 259.073 152.249C259.005 151.906 259.005 151.425 259.073 150.807C259.142 150.258 259.142 149.674 259.073 149.056C259.073 148.438 259.073 147.854 259.073 147.305V142.258C259.005 140.679 258.97 139.065 258.97 137.417C258.97 135.769 258.936 134.67 258.867 134.121C258.799 133.503 258.799 132.885 258.867 132.267C259.005 131.649 259.073 131.031 259.073 130.413C259.005 129.452 258.97 128.49 258.97 127.529C259.039 126.499 259.073 125.503 259.073 124.542C259.073 123.718 259.039 122.654 258.97 121.349C258.902 119.976 258.936 118.877 259.073 118.053C259.623 117.916 260.309 117.847 261.133 117.847C261.957 117.847 262.85 117.813 263.811 117.744C264.567 117.675 265.322 117.641 266.077 117.641C266.833 117.641 267.382 117.641 267.725 117.641C267.863 117.641 267.897 117.847 267.828 118.259C267.828 118.602 267.828 118.843 267.828 118.98C267.76 120.697 267.76 122.207 267.828 123.512C267.897 124.748 267.863 126.053 267.725 127.426C267.794 128.799 267.794 130.001 267.725 131.031C267.725 131.992 267.657 133.16 267.519 134.533C267.519 134.739 267.519 135.288 267.519 136.181C267.519 137.074 267.554 138.104 267.622 139.271C267.691 140.37 267.725 141.468 267.725 142.567C267.725 143.597 267.725 144.421 267.725 145.039ZM258.97 111.049C258.902 110.706 258.867 110.191 258.867 109.504C258.936 108.817 258.97 108.096 258.97 107.341C258.97 106.998 258.936 106.689 258.867 106.414C258.867 106.139 258.867 105.865 258.867 105.59C258.867 105.453 258.867 105.35 258.867 105.281C258.936 105.212 258.97 105.109 258.97 104.972H266.386C266.73 104.972 266.936 105.006 267.004 105.075C267.073 105.075 267.107 105.247 267.107 105.59V112.285C266.695 112.354 266.043 112.388 265.15 112.388C264.326 112.388 263.468 112.388 262.575 112.388C261.683 112.388 260.859 112.388 260.103 112.388C259.417 112.319 259.073 112.216 259.073 112.079C259.005 111.873 258.97 111.53 258.97 111.049ZM294.861 89.625C295.891 89.2817 296.99 89.0757 298.157 89.007C299.393 88.9383 300.526 88.904 301.556 88.904H305.573V94.26C305.367 94.26 305.195 94.2943 305.058 94.363C304.921 94.363 304.783 94.363 304.646 94.363H304.234C303.891 94.363 303.65 94.4317 303.513 94.569C303.376 94.7063 303.135 94.775 302.792 94.775C301.831 95.1183 300.972 95.4617 300.217 95.805C299.53 96.1483 298.844 96.4917 298.157 96.835C297.814 97.1783 297.47 97.556 297.127 97.968C296.852 98.3113 296.543 98.8263 296.2 99.513C295.857 100.2 295.548 100.886 295.273 101.573C294.998 102.191 294.861 102.809 294.861 103.427C294.861 104.457 294.724 105.59 294.449 106.826C294.243 107.993 294.14 109.092 294.14 110.122C294.14 111.083 294.037 111.976 293.831 112.8C293.694 113.555 293.625 114.448 293.625 115.478V116.714L294.964 116.92C295.17 116.92 295.582 116.989 296.2 117.126C296.818 117.263 297.47 117.332 298.157 117.332C298.775 117.332 299.359 117.366 299.908 117.435C300.526 117.435 300.904 117.435 301.041 117.435H302.792C302.792 118.122 302.792 118.637 302.792 118.98C302.861 119.255 302.861 119.701 302.792 120.319C302.792 120.525 302.758 120.834 302.689 121.246C302.62 121.589 302.552 121.898 302.483 122.173C302.414 122.31 302.38 122.379 302.38 122.379C302.449 122.379 302.414 122.551 302.277 122.894C302.208 122.963 302.037 122.963 301.762 122.894C301.487 122.825 301.075 122.825 300.526 122.894C300.32 122.894 299.908 122.997 299.29 123.203C298.741 123.409 298.157 123.478 297.539 123.409C297.264 123.409 296.955 123.443 296.612 123.512C296.269 123.581 295.96 123.649 295.685 123.718C295.273 123.787 294.895 123.855 294.552 123.924C294.209 123.993 293.831 124.027 293.419 124.027C293.282 125.4 293.11 127.117 292.904 129.177C292.698 131.237 292.561 132.954 292.492 134.327C292.423 135.22 292.458 136.078 292.595 136.902C292.732 137.657 292.732 138.413 292.595 139.168C292.595 139.374 292.629 139.58 292.698 139.786C292.767 139.992 292.732 140.164 292.595 140.301C292.526 140.713 292.492 141.537 292.492 142.773C292.492 144.009 292.492 145.245 292.492 146.481C292.492 147.717 292.492 148.781 292.492 149.674C292.561 150.498 292.595 150.738 292.595 150.395C292.732 150.738 292.801 151.185 292.801 151.734C292.87 152.215 292.904 152.627 292.904 152.97C292.973 153.794 292.973 154.618 292.904 155.442C292.904 156.335 292.904 156.85 292.904 156.987C292.767 157.124 292.629 157.227 292.492 157.296C292.286 157.502 291.977 157.605 291.565 157.605C291.222 157.605 290.775 157.639 290.226 157.708C289.745 157.777 289.333 157.811 288.99 157.811C288.647 157.811 288.166 157.845 287.548 157.914C286.999 158.051 286.552 158.12 286.209 158.12C285.591 158.12 284.801 158.189 283.84 158.326C282.879 158.463 282.055 158.532 281.368 158.532C281.368 157.845 281.299 157.296 281.162 156.884C281.025 156.541 281.025 156.026 281.162 155.339C281.162 155.27 281.128 154.927 281.059 154.309C281.059 153.691 281.059 153.004 281.059 152.249C281.059 151.425 281.025 150.704 280.956 150.086C280.956 149.468 280.956 149.125 280.956 149.056C280.819 148.369 280.75 147.408 280.75 146.172C280.819 144.936 280.853 143.666 280.853 142.361C280.853 141.468 280.853 140.301 280.853 138.859C280.922 137.348 280.99 136.009 281.059 134.842C281.059 134.293 281.059 133.4 281.059 132.164C281.128 130.928 281.196 130.001 281.265 129.383C281.334 128.628 281.299 127.941 281.162 127.323C281.025 126.705 280.956 126.053 280.956 125.366V124.027C279.995 123.89 278.93 123.821 277.763 123.821C276.596 123.752 275.566 123.821 274.673 124.027C274.467 123.89 274.295 123.684 274.158 123.409C274.158 122.722 274.158 122.07 274.158 121.452C274.227 120.765 274.261 120.113 274.261 119.495V118.053C274.604 117.71 274.845 117.538 274.982 117.538C275.119 117.469 275.36 117.435 275.703 117.435C276.39 117.435 277.282 117.435 278.381 117.435C279.48 117.366 280.372 117.366 281.059 117.435C281.334 117.435 281.471 117.401 281.471 117.332C281.54 117.263 281.54 117.16 281.471 117.023C281.471 116.886 281.471 116.748 281.471 116.611C281.471 116.405 281.54 116.199 281.677 115.993C281.677 115.032 281.711 114.379 281.78 114.036C281.849 113.624 281.883 112.903 281.883 111.873C281.883 110.362 281.952 108.955 282.089 107.65C282.226 106.277 282.295 104.869 282.295 103.427C282.295 102.946 282.329 102.603 282.398 102.397C282.535 102.122 282.638 101.813 282.707 101.47C282.776 100.646 282.913 99.8907 283.119 99.204L284.664 95.908C285.213 94.9467 285.728 94.2257 286.209 93.745C286.758 93.1957 287.273 92.6463 287.754 92.097C288.372 91.3417 288.784 90.9297 288.99 90.861C289.265 90.7923 289.471 90.758 289.608 90.758C289.745 90.758 289.951 90.6893 290.226 90.552C290.501 90.346 290.878 90.1743 291.359 90.037C291.908 89.8997 292.458 89.7967 293.007 89.728C293.625 89.5907 294.003 89.5563 294.14 89.625H294.861ZM315.608 145.039C315.746 146.412 315.78 147.648 315.711 148.747C315.643 149.846 315.54 150.876 315.402 151.837C315.402 152.249 315.299 152.558 315.093 152.764C314.407 152.901 313.617 153.039 312.724 153.176C311.832 153.245 311.008 153.245 310.252 153.176C309.634 153.107 309.016 153.142 308.398 153.279C307.78 153.348 307.334 153.382 307.059 153.382C307.059 152.97 307.025 152.592 306.956 152.249C306.888 151.906 306.888 151.425 306.956 150.807C307.025 150.258 307.025 149.674 306.956 149.056C306.956 148.438 306.956 147.854 306.956 147.305V142.258C306.888 140.679 306.853 139.065 306.853 137.417C306.853 135.769 306.819 134.67 306.75 134.121C306.682 133.503 306.682 132.885 306.75 132.267C306.888 131.649 306.956 131.031 306.956 130.413C306.888 129.452 306.853 128.49 306.853 127.529C306.922 126.499 306.956 125.503 306.956 124.542C306.956 123.718 306.922 122.654 306.853 121.349C306.785 119.976 306.819 118.877 306.956 118.053C307.506 117.916 308.192 117.847 309.016 117.847C309.84 117.847 310.733 117.813 311.694 117.744C312.45 117.675 313.205 117.641 313.96 117.641C314.716 117.641 315.265 117.641 315.608 117.641C315.746 117.641 315.78 117.847 315.711 118.259C315.711 118.602 315.711 118.843 315.711 118.98C315.643 120.697 315.643 122.207 315.711 123.512C315.78 124.748 315.746 126.053 315.608 127.426C315.677 128.799 315.677 130.001 315.608 131.031C315.608 131.992 315.54 133.16 315.402 134.533C315.402 134.739 315.402 135.288 315.402 136.181C315.402 137.074 315.437 138.104 315.505 139.271C315.574 140.37 315.608 141.468 315.608 142.567C315.608 143.597 315.608 144.421 315.608 145.039ZM306.853 111.049C306.785 110.706 306.75 110.191 306.75 109.504C306.819 108.817 306.853 108.096 306.853 107.341C306.853 106.998 306.819 106.689 306.75 106.414C306.75 106.139 306.75 105.865 306.75 105.59C306.75 105.453 306.75 105.35 306.75 105.281C306.819 105.212 306.853 105.109 306.853 104.972H314.269C314.613 104.972 314.819 105.006 314.887 105.075C314.956 105.075 314.99 105.247 314.99 105.59V112.285C314.578 112.354 313.926 112.388 313.033 112.388C312.209 112.388 311.351 112.388 310.458 112.388C309.566 112.388 308.742 112.388 307.986 112.388C307.3 112.319 306.956 112.216 306.956 112.079C306.888 111.873 306.853 111.53 306.853 111.049ZM342.023 126.19C341.199 126.327 340.444 126.533 339.757 126.808C339.07 127.083 338.418 127.598 337.8 128.353C336.839 129.314 336.152 130.413 335.74 131.649C335.397 132.885 335.225 134.293 335.225 135.872V138.447C335.568 139.134 335.809 139.889 335.946 140.713C336.083 141.537 336.495 142.258 337.182 142.876C337.525 143.494 337.972 144.112 338.521 144.73C339.07 145.348 339.62 146.035 340.169 146.79C340.512 146.996 340.959 147.168 341.508 147.305C342.057 147.374 342.504 147.58 342.847 147.923C343.74 148.266 344.77 148.472 345.937 148.541C347.104 148.541 348.169 148.541 349.13 148.541C349.611 148.472 350.091 148.369 350.572 148.232C351.053 148.026 351.808 147.923 352.838 147.923C353.181 147.786 353.456 147.923 353.662 148.335C353.868 148.678 354.074 149.125 354.28 149.674C354.486 150.017 354.692 150.464 354.898 151.013C355.104 151.494 355.276 151.94 355.413 152.352C355.55 152.627 355.688 152.901 355.825 153.176C356.031 153.382 356.134 153.691 356.134 154.103C355.997 154.172 355.825 154.275 355.619 154.412C355.413 154.618 355.173 154.79 354.898 154.927C354.761 155.27 354.452 155.476 353.971 155.545C353.49 155.682 353.113 155.888 352.838 156.163C350.366 157.399 347.86 158.017 345.319 158.017C344.701 158.017 344.117 158.017 343.568 158.017C343.019 158.086 342.332 158.086 341.508 158.017C340.89 158.017 340.066 157.845 339.036 157.502C338.624 157.502 338.006 157.502 337.182 157.502C336.358 157.502 335.74 157.468 335.328 157.399C334.985 157.33 334.641 157.193 334.298 156.987C334.023 156.781 333.714 156.609 333.371 156.472C333.028 156.335 332.684 156.197 332.341 156.06C331.998 155.923 331.654 155.785 331.311 155.648C330.556 155.305 329.869 154.755 329.251 154C328.702 153.313 328.084 152.661 327.397 152.043C326.779 151.494 326.092 150.773 325.337 149.88C324.65 148.919 324.238 148.129 324.101 147.511C323.826 146.756 323.449 145.932 322.968 145.039C322.556 144.146 322.316 143.219 322.247 142.258C322.11 141.846 322.041 141.503 322.041 141.228C322.041 140.953 322.041 140.679 322.041 140.404V135.872C322.041 134.293 322.075 132.885 322.144 131.649C322.281 130.344 322.659 129.074 323.277 127.838C323.62 127.151 323.929 126.396 324.204 125.572C324.547 124.748 325.062 123.993 325.749 123.306C325.749 122.963 325.886 122.654 326.161 122.379C326.436 122.036 326.745 121.761 327.088 121.555L328.839 119.598C329.594 119.255 330.178 118.946 330.59 118.671C331.002 118.328 331.483 117.984 332.032 117.641C332.993 117.298 333.92 117.023 334.813 116.817C335.706 116.542 336.495 116.405 337.182 116.405C338.281 116.199 339.173 116.027 339.86 115.89C340.615 115.684 341.577 115.787 342.744 116.199C343.362 116.268 343.98 116.371 344.598 116.508C345.285 116.577 345.903 116.748 346.452 117.023C347.001 117.16 347.413 117.263 347.688 117.332C347.963 117.401 348.306 117.504 348.718 117.641C349.405 117.778 350.057 118.019 350.675 118.362C351.362 118.705 351.98 119.049 352.529 119.392L353.25 119.598C353.319 119.598 353.319 119.873 353.25 120.422C353.25 120.903 353.181 121.418 353.044 121.967C352.907 122.31 352.838 122.688 352.838 123.1C352.838 123.443 352.838 123.958 352.838 124.645V126.499C352.838 126.636 352.735 126.808 352.529 127.014C352.46 127.083 352.392 127.117 352.323 127.117C351.98 127.117 351.671 127.083 351.396 127.014C351.121 126.877 350.812 126.808 350.469 126.808C349.988 126.671 349.405 126.499 348.718 126.293C348.031 126.018 347.448 125.881 346.967 125.881C346.074 125.881 345.216 125.881 344.392 125.881C343.637 125.881 342.847 125.984 342.023 126.19ZM398.222 156.472L397.501 156.575C397.158 156.644 396.918 156.644 396.78 156.575C396.712 156.575 396.403 156.575 395.853 156.575C395.785 156.575 395.579 156.609 395.235 156.678C394.892 156.747 394.514 156.815 394.102 156.884C393.69 156.953 393.244 156.953 392.763 156.884C392.283 156.884 391.905 156.815 391.63 156.678C391.287 156.678 391.047 156.644 390.909 156.575C390.772 156.506 390.532 156.472 390.188 156.472C389.845 156.197 389.639 155.785 389.57 155.236C389.57 154.687 389.57 154.24 389.57 153.897V151.322L388.746 152.455L386.892 154.206C386.206 154.687 385.622 155.064 385.141 155.339C384.729 155.682 384.214 156.026 383.596 156.369C382.566 156.987 381.433 157.399 380.197 157.605C379.03 157.811 377.931 157.914 376.901 157.914C375.871 157.914 374.773 157.708 373.605 157.296C372.507 156.884 371.511 156.506 370.618 156.163C370.344 156.094 370.069 155.957 369.794 155.751C369.588 155.614 369.382 155.476 369.176 155.339C368.764 154.996 368.284 154.652 367.734 154.309C367.254 153.966 366.842 153.622 366.498 153.279C366.292 153.142 366.086 153.004 365.88 152.867C365.743 152.661 365.537 152.489 365.262 152.352C364.919 152.146 364.61 151.803 364.335 151.322C363.992 150.567 363.546 149.846 362.996 149.159C362.516 148.404 362.104 147.545 361.76 146.584C361.554 145.829 361.28 145.108 360.936 144.421C360.593 143.734 360.421 143.082 360.421 142.464C360.421 142.121 360.387 141.537 360.318 140.713C360.25 139.889 360.215 139.305 360.215 138.962C360.215 138.344 360.215 137.863 360.215 137.52C360.284 137.177 360.318 136.662 360.318 135.975C360.318 135.632 360.353 135.288 360.421 134.945C360.559 134.533 360.696 134.018 360.833 133.4C360.971 132.645 361.074 131.855 361.142 131.031C361.211 130.138 361.314 129.417 361.451 128.868C361.932 127.975 362.241 127.426 362.378 127.22C362.584 127.014 362.756 126.636 362.893 126.087C363.031 125.675 363.202 125.16 363.408 124.542C363.683 123.855 364.061 123.34 364.541 122.997C364.747 122.86 365.056 122.619 365.468 122.276C365.88 121.933 366.292 121.555 366.704 121.143C367.185 120.731 367.597 120.388 367.94 120.113C368.284 119.77 368.524 119.598 368.661 119.598L370.515 118.774C371.065 118.568 371.683 118.431 372.369 118.362C373.056 118.225 373.708 118.156 374.326 118.156L377.519 118.053C377.863 118.053 378.24 118.053 378.652 118.053C379.133 118.053 379.442 118.087 379.579 118.156C379.923 118.156 380.266 118.259 380.609 118.465C380.953 118.671 381.296 118.774 381.639 118.774C381.983 118.774 382.395 118.911 382.875 119.186C383.425 119.392 383.871 119.667 384.214 120.01C384.901 120.285 385.416 120.628 385.759 121.04C386.171 121.383 386.549 121.727 386.892 122.07C387.236 122.413 387.545 122.757 387.819 123.1C388.163 123.375 388.506 123.684 388.849 124.027C388.849 124.233 388.987 124.405 389.261 124.542C389.399 124.611 389.502 124.679 389.57 124.748C389.708 124.611 389.776 124.336 389.776 123.924C389.845 123.512 389.982 123.134 390.188 122.791C390.257 121.83 390.291 120.971 390.291 120.216C390.36 119.392 390.429 118.843 390.497 118.568C390.429 118.293 390.463 117.916 390.6 117.435C390.738 116.886 390.978 116.68 391.321 116.817C391.459 116.748 391.768 116.748 392.248 116.817C392.729 116.886 393.278 116.989 393.896 117.126C394.514 117.195 395.132 117.263 395.75 117.332C396.437 117.401 397.021 117.435 397.501 117.435C397.57 117.435 397.604 117.607 397.604 117.95C397.604 118.293 397.57 118.568 397.501 118.774L398.119 128.662V139.786C398.119 139.992 398.085 140.198 398.016 140.404C398.016 140.61 398.016 140.816 398.016 141.022C398.085 141.64 398.119 142.292 398.119 142.979C398.119 143.597 398.119 144.249 398.119 144.936C398.188 145.417 398.188 145.932 398.119 146.481C398.119 146.962 398.119 147.477 398.119 148.026C398.119 148.438 398.119 149.022 398.119 149.777C398.188 150.464 398.222 151.185 398.222 151.94C398.222 152.695 398.222 153.416 398.222 154.103C398.222 154.858 398.222 155.476 398.222 155.957V156.472ZM384.935 140.919V140.61C384.935 140.198 385.004 139.305 385.141 137.932C385.279 136.49 384.97 134.739 384.214 132.679C384.008 132.13 383.699 131.546 383.287 130.928C382.875 130.31 382.223 129.829 381.33 129.486C380.85 129.349 380.403 129.211 379.991 129.074C379.579 128.868 379.133 128.799 378.652 128.868C378.172 129.005 377.554 129.314 376.798 129.795C376.112 130.276 375.528 130.859 375.047 131.546C374.704 131.889 374.498 132.267 374.429 132.679C374.361 133.091 374.292 133.572 374.223 134.121C374.017 135.014 373.846 135.7 373.708 136.181C373.64 136.662 373.605 137.28 373.605 138.035C373.605 139.408 373.983 140.61 374.738 141.64C375.562 142.67 376.077 143.357 376.283 143.7C376.489 143.906 376.661 144.043 376.798 144.112C377.004 144.112 377.279 144.284 377.622 144.627C378.309 144.97 378.961 145.039 379.579 144.833C380.197 144.558 380.884 144.249 381.639 143.906H382.257C382.875 143.563 383.39 143.219 383.802 142.876C384.214 142.533 384.592 142.018 384.935 141.331V140.919Z" fill="#D4A6FF"/>
</svg>
